<svg id="Layer_1" data-name="Layer 1" xmlns="http://www.w3.org/2000/svg" viewBox="0 0 3157.68 734.57"><title>Logo-completo-negro</title><path d="M1382.88,463.34m-8.11,2.33,3.81-.11c1.72,2.74,4.47,3.35,7.23,4.67l104.81,40.84c12.15,5.22,24.3,10.44,35.92,16.37a58.72,58.72,0,0,1,9.41,4.61,16.41,16.41,0,0,1,4.51,4.75c0,1.39.62,2.77.12,4.18-1.07.73-1.59,1.44-2.68,1.48l-5-2c-22.17-11.9-45.32-20.28-68-29.38L1358,469a4,4,0,0,1-2.69.78,10.53,10.53,0,0,1-6.54.2c.56.68,1.65.64,2.21,1.33,42.49,16.87,85.5,33,128,49.92,17.12,7.16,34.23,14.33,51.39,22.89,1.66.64,3.85,1.28,5.57,4-3.26.1-6-1.22-8.8-2.53-11.1-6.65-23.22-11.17-34.83-16.41L1447,511.67c-21-8.45-41.35-15.52-61.78-24l-43-17.56c-3.27.1-5.93,2.27-9.09,5.85-1,1.43-3.19,2.89-3.67,5-.5,1.41.06,2.09,1.15,2.06a16.83,16.83,0,0,1-5.75,8.54,2.59,2.59,0,0,0,.09,2.79l-5.24,7.13a39.78,39.78,0,0,0-3.11,5.67c-2.61,3.57-1.38,8.42-5.09,12-2.64,2.87-4.13,7.79-6.19,12A98.3,98.3,0,0,0,1297.7,551c-.5,1.4-.46,2.8-1.5,4.23-5.75,8.54-8.14,19.77-12.77,29a124.22,124.22,0,0,0-7.57,20.46,23.34,23.34,0,0,1-2,5.64c-2,4.25-6.93,5.09-8.71.26-3.52-8.27-5.38-15.88-1.86-25.76L1279,544.57c3.54-9.17,7.1-17.65,11.19-26.84,2.54-6.36,5.64-12,8.18-18.39,5.13-10.62,9.14-22.6,14.82-33.23l1.56-2.84a9.45,9.45,0,0,0-.23-7.67l-.55,0a10.91,10.91,0,0,1-5.07-5.43,11.84,11.84,0,0,1,2.79,2c-.59-1.38-1.7-2-2.83-3.41-3.39-4.08-5.72-8.9-8-13.71a23,23,0,0,1-1.4-10.43c-.1-3.48,2-6.33,4.76-5,4.42,2,8.86,4.62,12.73,6.6l3.34,2c5.55,3.33,8.25,2.55,11.9-3.14,3.1-5.68,6.2-11.35,8.22-17,3-7.77,6.08-15.53,10.79-21.95a16.2,16.2,0,0,0,2.56-5.66c4.55-12,10.78-22.65,16.46-33.28,2-4.25,4.12-7.8,5.64-12,3.61-7.09,7.19-14.87,11.36-21.27l3.1-5.68c4.53-12.69,11.3-23.36,17-34.69,9.77-19.83,22.35-36.95,32.14-56.08,8.76-17,19.2-32.66,29.07-49,5.7-9.94,12.54-18.52,18.78-28.47,4.2-5.71,8.41-10.72,13.75-14.37a.55.55,0,0,1,1.09,0c1.09,0,.59,1.38.61,2.08-.54,0-.52.71-.52.71,0,1.39.08,2.79,1.72,2.74L1506,131a4.79,4.79,0,0,1,2.9,6.2c0,.7-.5,1.41-.48,2.11-4.13,7.79-7.14,16.26-12.39,23.39-3.16,3.58-5.74,8.54-8.34,12.81-6.23,10.65-12.43,22-19.21,32.66-3.14,4.28-5.15,9.92-7.73,14.88l-14,24.84c-3.63,6.39-7.23,13.47-10.86,19.86a17.46,17.46,0,0,0-2,7.73,27.34,27.34,0,0,1-5.2,8.53c-1.59,1.44-2.09,2.85-3.12,5a3.84,3.84,0,0,1-1.56,2.84c-4.77,4.32-6.77,10.66-8.17,18.38a26.35,26.35,0,0,1-6.69,13.46c-4.78,4.32-7.86,10.69-11,16.37l-2.54,6.35,1.09,0,1.57-2.14c-.52.72-.5,1.41-1,2.13l-1.59,1.44c-.94,4.91-2.47,8.44-5.68,10.63a9.16,9.16,0,0,0-3.12,5,3.88,3.88,0,0,0-1,2.12l1.09,0a44.4,44.4,0,0,1-8.2,17.69l-1.51,4.23-.12-4.18a3.08,3.08,0,0,0,.12,4.18c-1.07.73-2.09,2.85-3.16,3.58-3.21,2.19-4.74,5.73-5.16,9.92-.38,5.6-3,9.16-6.73,12.07-3.18,2.88-5.79,7.14-7.84,11.39l.09,2.79c1.11.67,2.15-.76,2.7-.78,1.76,4.14,4.52,5.45,8.33,5.34a101.75,101.75,0,0,0,18.88-6.84c7.5-4.41,15-9.52,22.49-13.93,11.77-7.33,23.49-16.75,34.12-26.13l12.78-10.15c2.64-2.87,5.82-5.76,9-8.64,10-11.46,20.61-22.24,31.15-34.42,11.61-12.9,23.16-27.9,34.18-42.18l1.55-2.84c13.75-14.36,23-32.78,34-49.85a511.53,511.53,0,0,0,34.13-62.42A238.22,238.22,0,0,0,1611,141.18c8-22.57,4.71-43.4-8.4-62.55a71,71,0,0,0-16.32-16.95c-10.56-6.67-21.11-13.33-32.67-17.17-7.69-1.87-15.93-3.72-24.1-3.47a240.68,240.68,0,0,0-58.67,7.32,300.4,300.4,0,0,0-59.3,22.7,171.1,171.1,0,0,1-16.68,7.47l1.51-4.23a15.64,15.64,0,0,0-7,4.39l5.45-.16h.54a24.47,24.47,0,0,1-8.54,5.83c-8,5.82-16.58,11-24.59,16.78-5.32,4.34-10.12,8-15.46,11.62q-3.9,6.41-9.56,8.66c-3.25.8-5.36,3-8,5.12-10.12,8-17.4,20.06-25.26,30.76-3.15,4.28-6.29,8.56-6.67,14.15l-1.57,2.14A96.2,96.2,0,0,0,1283,201.87a51.79,51.79,0,0,0-2.35,12.63,132.61,132.61,0,0,1-.11,14.65c-.27,9.08,2.68,16.67,8.83,22.07,3.4,4.08,7.29,6.76,11.19,9.44a129.43,129.43,0,0,0,19.38,9.88c1.65.65,3.31,1.3,3.39,4.09a3.67,3.67,0,0,0,2.28,3.42l3.34,2c1.11.66,1.74,3.43.67,4.16a15.32,15.32,0,0,0-4.28,2.92c-.53.71,0,1.39,1.15,2.06s1.13,1.36.06,2.09a17.57,17.57,0,0,1-6,.87c-8.74-.43-16.47-3.69-23.72-9.06a87.9,87.9,0,0,1-22.07-27.25,96.71,96.71,0,0,1-4.69-11c-6.72-24.22-8-47.9.61-71.18a171.47,171.47,0,0,1,8.18-18.39c7.19-14.86,16.08-27.69,25-40.51,1.06-.73,1.56-2.14,2.63-2.87,9.56-8.66,17.42-19.35,27-28,7.44-6.5,14.88-13,23.47-17.45,6.43-3.68,12.28-8.73,18.69-13.11,6.92-5.79,14.44-9.5,22-13.21A90.87,90.87,0,0,0,1411,32.7c4.79-3.63,10.74-5.2,16.7-6.78a85.19,85.19,0,0,0,19.42-6.85c4.3-2.22,8.09-3,12.41-4.56,6.49-1.59,13-3.87,19.46-5.46,9.73-3.08,19-3.36,28.77-4.35l7.08-.21a64.94,64.94,0,0,1,20.18.1c10.37.39,20.26,2.89,30.17,6.08a13,13,0,0,1,4.94,1.25c10,6,20.47,9.86,28.91,18.68,14,14.23,23.33,32.8,27.24,54.31a197.32,197.32,0,0,1,2.14,53.66c-.78,10.49-3.74,21-6.17,30.88-1.49,4.93-2.43,9.84-3.94,14.08-1.47,5.62-4,10.58-6.08,15.53a95.28,95.28,0,0,1-7.24,13.47c-1.55,2.84-2,6.34-2.43,9.84l.54,0c-1.63.05-2.15.76-1.57,2.14a65.75,65.75,0,0,0-5.8,6.45L1576,264.32c-1,1.43-1.53,3.54-2,4.95a126.36,126.36,0,0,0-7.32,10.68c-4.15,7.1-8.89,12.83-13.6,19.25-8.37,12.11-17.82,24.25-26.75,35.68-6.28,8.56-12.59,16.42-18.9,24.28-1.59,1.45-3.73,2.9-4.2,5.71-1,2.82-3.14,4.28-5.28,5.74s-4.81,2.93-6.39,5.07.11,3.49,1.22,4.15c-2.63,3.57-6.75,4.46-10.15,7.28-2.55,2.12.78,2.8-3.1,5.68.06,2.09-1.55,2.83-2.08,3.55a57.32,57.32,0,0,1-8,5.82l-7.83,5.8c-1.07.73,7.77-7.89,7.83-5.8a36.23,36.23,0,0,1-4.21,5c-6.92,5.78-13.79,13-20.73,18.06l-16,13a64.47,64.47,0,0,1-17.71,9.6l5.26-6.44c0-.7.51-1.41-.06-2.09,0,0-.57-.68-1.11-.67-3.79.81,11.54-6.17,8.34-4,.67,5-28.48,24.54-36,26.86l3.14-5.4a41,41,0,0,0,8.07-3.73c4.29-2.22,8-4.42,12.4-4.55-4.78,4.32-10.14,7.28-15.51,10.23,4.4,1.26,8.3,3.94,12.72,5.9a85.35,85.35,0,0,0,13.78,5.17,37.64,37.64,0,0,1,8.26,2.54c8.86,4.62,17.66,7.15,27,10.36,7.17,2.58,14.33,5.16,21.52,8.43,6.64,3.3,13.8,5.87,20.42,8.47,11,4.55,22.1,9.81,33.15,14.36,5.53,2.63,7.19,17.37,8.51,25a365.4,365.4,0,0,0-60.05-31.16c-33.12-13.67-73.38-26.69-107-39m5-2.65,0-.7m-53.62,30.2,0-.69Zm-.31-358.62c.53-.71,1-1.43,1.6-1.44l0,.69A1.77,1.77,0,0,0,1324.63,136.44Zm20.91-48.77a2.31,2.31,0,0,0-1.61.75,13.28,13.28,0,0,1-2.65,2.87c1.07-.73,2.71-.78,3.78-1.51C1345,89.09,1346.12,89.05,1345.54,87.67Zm28,374.55-.57-.68C1373.56,461.52,1373.58,462.22,1373.58,462.22Zm-9.91-388.34h-.55c-.52.72-.5,1.42-1,1.43.55,0,1.09,0,1.07-.73C1364.23,74.56,1364.21,73.86,1363.67,73.88Zm9.91,388.34c.54,0,1.11.66,1.11.66S1374.12,462.2,1373.58,462.22ZM1376,86.77c-1.07.73-2.7.77-3.77,1.51-2.66,2.17-4.78,4.32-3.69,4.29,2.18-.06,3.23-1.49,4.83-2.93C1374.47,88.91,1375,87.5,1376,86.77Zm40.55,391.61c1.11.67,2.74.62,4.39,1.27a13,13,0,0,1-4.94-1.25l-4.42-2Zm-9.47-410-.54,0c-1.09,0-1.64,0-2.16.76,0,0-.55,0-.53.71s.57.68,1.11.67a1.75,1.75,0,0,1,1.62-.75C1407.14,69.1,1407.14,69.1,1407.12,68.4Zm18.29,413.21c-1.66-.65-2.77-1.31-4.43-2Zm9.38,3.91c1.66.65,2.77,1.31,4.4,1.26l4.42,2c-1.66-.64-2.74-.61-4.4-1.26Zm6.51-221.38-1.6,1.45C1440.23,264.87,1440.75,264.16,1441.3,264.14ZM1448,490.71l.54,0,4.43,2Zm-6.22-227.28.53-.71C1442.36,263.41,1441.81,263.43,1441.81,263.43Zm-2.46-211.34c0-.7,0-.7-.57-.68l-.54,0C1438.78,51.41,1438.78,51.41,1439.35,52.09Zm41.24,451.6L1480,503h.55Zm45.27,18.89,0,.7S1525.31,522.6,1525.86,522.58Zm0,0"/><path d="M1604.32,525.54c-.47,5.75-4.17,9.68-7.88,13.61-1.87,1.33-4.38,2.68-6.94,2.12-1.93-.58-4.48-.5-7-1.06-3.2-.54-10.07-4.93-11.44-8.08-2-3.12.28-3.06-2.35-6.17-3.3-3.72-3.39-6.9-.35-11.45,3-5.19,8-7.89,13.72-10,1.28,0,1.89-.69,2.55-.07,6.44,2.35,12.86,4.07,15.6,10.36,1.35,2.51,5.33,5.16,4.14,7.75m-6.83,8.9s-1.28,0-.62.65Z"/><path d="M159.44,566.71a1.54,1.54,0,0,0-1.07-.71M154,574.31c-8.71,7.58-18.47,11.67-28.22,14.36-9.2,2.7-18.94,4-28.14,6a16.11,16.11,0,0,1-8.1-.07c-5.39-1.44-9.73.61-13.55,4.75-1.63,2.07-3.26,2.75-4.36,5.52a1.44,1.44,0,0,0,1.6,1.41h-.54c-1.11,4.17-3.29,6.23-5.47,8.3a2.87,2.87,0,0,0-.57,3.47L61.16,625c-1.09,1.38-1.64,3.47-2.74,4.85-2.73,3.45-1.7,9-5.51,12.47-3.26,2.06-4.92,6.91-6.58,11.07a118,118,0,0,0-8.27,19.4,26.56,26.56,0,0,1-1.65,4.16c-6,8.3-8.82,19.4-13.76,28.4-3.83,6.23-6,13.16-8.28,20.79A19.87,19.87,0,0,0,12.16,731c-2.2,4.85-7.06,4.81-9.18-.08-2.62-8.37-4.72-16-.86-25C7.65,692,13.7,679.51,19.75,666.34l11.58-27c2.75-5.54,6.05-11.77,9.33-17.31,5-11.09,9.38-22.18,16-32.55.55-1.39,1.1-2.08,1.11-3.47,1.64-2.77,1.13-6.25-.46-9-1.61-1.4-2.67-3.5-4.28-5.6-3.21-3.5-5.32-9.09-7.44-14A32,32,0,0,1,44,546.92c.58-3.47,2.75-5.54,5.44-4.13a112,112,0,0,1,12.36,7.07L65.05,552c5.37,2.83,8.07,2.85,11.91-3.37A105.8,105.8,0,0,0,85.75,532c3.31-7.62,6.61-14.55,11.53-21.46A16.34,16.34,0,0,0,100,505c5-11.09,11.53-21.46,17-32.54,2.19-3.46,4.38-7.62,6.58-11.77,3.84-6.92,7.15-14.54,12.06-20.76a16.17,16.17,0,0,0,2.76-5.54c5-11.78,12.08-22.85,18.66-33.92,10.42-18.69,23.53-35.27,34-54.65,9.32-16.61,20.25-31.12,30.66-47a297.5,297.5,0,0,1,19.68-27.65,76.51,76.51,0,0,1,13.63-14.49h1.62c1.08.71.53,1.4,0,2.79v.69c-.55,1.39,0,2.09,1.06,2.79,1.08,0,1.63-.68,2.17-.67,2.69.72,3.75,3.51,3.18,7-.55.69-.55.69-.56,1.39-4.92,7.61-7.71,16.62-13.71,23.53-2.73,3.45-5.46,7.6-8.2,11.75C234,317,226.9,327.33,219.78,337.7c-2.74,4.85-4.95,10.39-8.23,15.23-4.93,7.61-9.87,15.91-14.26,24.22l-11.5,18.68c-1.11,2.77-2.75,4.85-2.24,8.33-1.64,2.77-3.29,6.23-6,8.29a6.94,6.94,0,0,0-2.74,4.15,16.18,16.18,0,0,1-1.65,3.47c-4.9,4.13-7.65,10.36-8.79,17.31-1.13,5.55-3.88,10.4-7.14,13.15-4.9,4.83-8.19,10.36-11.49,16.59l-2.21,4c.54,0-.88,1.61-.34,1.61l-.76,2a15.66,15.66,0,0,1-5.49,10.38c-1.63.68.56-2.08,0,0l-1.58,2.74c.54,0-2.26,4.18-1.72,4.19a58.52,58.52,0,0,1-9.33,16.61l-.55,1.39a5.11,5.11,0,0,0-.56,2.77l-2.22.91,1.71-4.39c-.56,1.39-1.1,2.08.51,3.48-1.64,1.38-2.19,2.77-3.82,4.14-2.72,2.07-4.37,4.83-5,9.7s-3.86,9-7.12,11.76a34.37,34.37,0,0,0-8.2,10.36c0,.7-.56,2.78,0,2.78,1.07,1.4,1,2.52,2.06,1.83,1.57,4.89,4.91,3.8,8.7,3.14a45.3,45.3,0,0,0,18.42-6.1c8.14-4.1,15.73-8.21,23.34-13a236.81,236.81,0,0,0,34.79-24.74c3.8-3.44,8.15-6.19,12.5-9.63a54.05,54.05,0,0,0,9.25-7.57c10.9-11,21.8-22.06,32.16-33.1,12.54-13.11,24-26.92,35.47-41.43,1.09-.68,1.64-2.07,2.19-2.76,14.16-13.09,23.5-31.79,35.52-47.68a582.53,582.53,0,0,0,36.19-61.59c4.95-10.39,9.91-20.78,14.33-31.87,8.84-22.88,6.32-43.77-5.94-62.65-4.26-7-9.61-13.3-15.51-17.53-10.19-7.74-20.4-14.78-31.71-18.36a96,96,0,0,0-23.72-5.07,241.3,241.3,0,0,0-58.92,5,322.58,322.58,0,0,0-59.6,20.35c-5.31,2.69-5.61,2.8-16.26,6.81L143,210.51c-32.68,20.07,10.28-20.9,3.39-4.91l5.94.05c-2.19,2.77-5.44,4.13-8.16,6.19-8.68,4.79-17.37,10.28-25.52,15.78-4.9,3.43-10.33,7.56-15.76,10.29a16.16,16.16,0,0,1-9.79,8.26c-2.72,1.37-4.89,3.44-7.61,5.5-10.33,7.56-18,19.32-26.73,29.68-2.73,3.45-6.55,7.59-7.14,13.84L50,297.27c-6,7.6-10.41,16.6-13.74,27A50.73,50.73,0,0,0,34,337.47c0,4.87-.62,9.73-.66,13.9-.63,9.74,2,17.41,7.36,23a141.7,141.7,0,0,0,11.26,9.84c5.91,3.53,12.36,7.06,18.28,9.9,2.15.71,3.23,1.41,3.2,4.89,0,1.39,1.6,2.1,2.67,2.81l3.22,2.11c1.07,1.4,1.06,3.49,0,4.18a13.1,13.1,0,0,1-3.81,2.74c-.54.7,0,1.4.53,2.1,1.61.71,1.6,2.1,0,2.78-1.62,0-3.79.66-5.4-.05-8.64-.07-16.17-4.31-23.14-9.94a75.54,75.54,0,0,1-21.36-28c-1.59-3.49-3.18-7-3.69-11.16-5.73-23.7-6.06-48.05,3.33-70.92,2.21-6.24,5.5-11.77,8.25-18,7.69-13.84,17.52-26.28,26.81-38.72a7.79,7.79,0,0,1,2.73-3.45c9.79-7.57,18-18.62,27.78-26.19a261.59,261.59,0,0,1,26.29-18.86c6.47-3.92,10.11-5.86,16.1-10.68a104.34,104.34,0,0,1,22.79-11.62c4.34-2,9.22-4.09,13-6.84,5.44-4.13,11.39-5.47,17.35-6.81,6.49-1.33,13-2.67,19.5-6.09,3.8-2,8.12-2.71,12.45-3.37,6.49-1.33,13-3.36,19.49-5.39a128.07,128.07,0,0,1,28.11-2.54,27.72,27.72,0,0,0,7.57-.62c6.49-.64,13.5.11,20,.86,10.25,1.49,19.41,4.35,29.1,7.22,1.62.7,3.78.72,5.38,2.13,9.14,5.64,19.36,10.6,27.92,19.72a103.6,103.6,0,0,1,24.91,55.17,197.54,197.54,0,0,1,.07,53.55A182.62,182.62,0,0,1,373.48,305c-1.13,4.86-2.79,9.72-3.91,14.58-1.67,5.55-4.42,10.39-6.61,14.55-2.2,4.85-4.94,9-7.69,13.84-1.64,2.77-2.2,5.54-2.78,9.71-1.08-.7-1.62,0-1.64,2.08V359c-1.63,2.07-3.81,4.14-5.46,6.91-7.11,10.37-14.23,21.44-20.81,32.51a19.14,19.14,0,0,0-2.2,4.85c-3.27,2.75-5.46,6.21-7.65,10.36-4.38,6.22-9.29,12.44-14.21,18.66-9.28,11.05-18.56,22.79-27.85,34.53l-20.18,22.78c-1.64,2.07-3.27,2.75-3.83,5.53-1.11,3.47-3.29,4.84-5.46,6.21-2.71.68-1,1.28-2.66,4-1.64,2.08-4.44,4.25-2.82,5-3.26,2.75-5.95,5.86-10.32,6.17-3,.21,8.79-6-3.83,5.53-3.47,3.17-1.1,2.77-2.19,4.15a30.86,30.86,0,0,1-7.61,4.81l1.66-4.16a6.84,6.84,0,0,0-1.66,4.16,31,31,0,0,1-4.36,4.83c-7.08,6.19-14.15,12.39-21.76,17.89-5.43,3.43-10.87,7.56-16.31,11.68s-11.41,7.55-17.9,8.89M92.81,589.08m55.26-19-34.56-1s0,.69-.54.69C113,569.09,113,569.09,113.51,569.09Zm56.79-7.85c-.55,0-1.63.68-2.17.68m23.63-169.51h-.54l.54-.69Zm2.65,128.7" fill="#2d2f30"/><path d="M580.52,466.7c.11,1.07-.32,2.2.33,3.22a6.73,6.73,0,0,1-1.71,4.52,19.18,19.18,0,0,0-5,4.31c-3,2.47-6.6,4.47-8.42,7.91a19,19,0,0,0-4.62,2.64c-18.14,13.79-36.93,26.56-55.67,39.86-11.65,8.24-23.41,15.41-36.94,21.13a46.14,46.14,0,0,1-12.2,2.87,14.7,14.7,0,0,1-9.57-3.37c-6.94-4.18-11.36-10.25-12.72-18.26-.32-3.22-.65-6.44-2.59-9.5-1.24-1.51-2.37-1.94-3.92-1.23a49.34,49.34,0,0,0-5.11,3.23c-8.1,5.71-16.21,11.42-24.91,16.65-14.23,9.59-28.45,19.17-44.67,25.17a57.76,57.76,0,0,1-10,3.18,13.27,13.27,0,0,1-12.31-3.63c-1.24-1.5-3-2.42-4.2-3.92-4.14-3.38-6.19-7.51-7.27-12.83-.81-2.63-1.09-5.32-1.9-7.95-2.11-10.1.19-19.57,6.35-28.34a66.32,66.32,0,0,1,5.26-7.05,121.2,121.2,0,0,1,27.95-29.44c3.49-3.07,7-5.6,9.93-9.15a38.34,38.34,0,0,1,9-7.43c7.57-5.66,15.68-11.37,25.07-15a1.67,1.67,0,0,0,1-.65c2.63-.81,21.27-4.33,24-4.07,7.64.31,13,4.66,17.38,10.73,1.29,2,2.69,5.15,4,7.73,1.24,1.5,2,3.6,3.23,5.1.65,1,1.78,1.45,3.34.75.54-.06,1-.65,2-1.3,4.19-1.51,8.11-.28,9.09,4s1.84,7.41,5.34,9.77a4.12,4.12,0,0,1,1.34,2.58c1.29,2-.69,3.87-.47,6-.32,2.2,2.53,3.54,2.8,6.23A5.3,5.3,0,0,1,472,494c-6.5,5.55-7.83,13.83-10.88,21.2a2.42,2.42,0,0,0,.27,2.68,4.88,4.88,0,0,0,2.75.27c6.76-2.86,13.53-5.72,19.06-10.08,9.07-6.9,18.73-13.31,27.86-19.67l3.6-2c8-6.78,17.29-11.53,25.34-17.78,2-1.29,3.54-2.53,5.64-3.28,5.8-1.68,10.36-4.86,15.46-8.09a47.9,47.9,0,0,1,8.7-5.23,2.66,2.66,0,0,1,3.44,1.82,13,13,0,0,1-1.66,5.06,2,2,0,0,1,1.67.37C580.29,459.12,580.94,460.14,580.52,466.7Zm-148.88-1.16c-2.2-.32-4.41-.64-6.5.12-12.74,2.92-24.66,8.47-34,18.11-.49.59-1,.65-1,1.18-2.63.81-4.62,2.64-6.6,4.47-6.44,6.09-12.94,11.63-18.78,18.2s-11.64,13.67-16.9,20.72a4.69,4.69,0,0,0-1.29,3.39c-.48.59.17,1.61.76,2.09.06.54,1.13.43,1.67.38a4.18,4.18,0,0,0,2.58-1.35,44.55,44.55,0,0,1,11.38-5.5,62.37,62.37,0,0,0,12.78-7.82,11.78,11.78,0,0,1,4-3.12c10.15-7,20.3-14,31-20.53,5-3.77,10.09-7.54,15.08-11.84a43,43,0,0,0,9-12.86C436.27,468.33,435,466.29,431.64,465.54Zm136-3c-.54.05-.54.05-1,.65a.53.53,0,0,0-.48.59l.54-.06Z" fill="#2d2f30"/><path d="M808.59,456.55c2.52-1.88,5.53-4.36,9.77-5.33a14.25,14.25,0,0,1-1.88,2.9c-3.54,2.53-7,5.6-11.05,8.73-15.2,10.77-30.44,21-45.1,31.72-13.15,9.48-25.76,18.91-39.51,27.91-7.09,5.06-14.93,8-23.42,10-10,2.65-19.51.35-27.37-7.54-6-5.9-11.48-22.18-10.74-30.94a15.64,15.64,0,0,0,.58-4.94,9.17,9.17,0,0,0,.16-3.82,2.88,2.88,0,0,0-4-2.3c-1,.64-1.5,1.23-2.57,1.34-10.74,6.52-21.54,12.51-32.33,18.49a76.44,76.44,0,0,1-9.23,5.28c-5.64,3.29-12.52,5.07-18.86,6.8-9.51,2.6-16.39-1-22-8.08-3.71-4.5-5.81-9.18-8-14.39a39.68,39.68,0,0,1-1.15-11.28c1.76-9.41,4.65-18.39,9.8-26.51a21.88,21.88,0,0,1,6.86-7.22c2.58-1.34,4.73-1.56,7.1.37l1.77,1.45c5.7,2.68,6.19,7.51,4,12.62-2.68,5.7-2.08,11.61-2.55,17.63.22,2.15,1.46,3.66,4.2,3.92,3.22-.33,6.45-.66,9-2.54a48.9,48.9,0,0,0,7.14-4.53c9.67-6.41,20.51-11.85,30.82-17.24,3.06-1.94,6.18-3.35,9.18-5.82,8.48-7.38,17.56-14.27,26.63-21.17,4.56-3.18,8.05-6.25,10.19-11.89a9.56,9.56,0,0,1,3.33-4.68c4.07-2.59,9.56-2.06,11.66,2.61a12.76,12.76,0,0,0,6.62,6.39,6.19,6.19,0,0,1,3.35,6.17c-.81,2.8.38,3.76,3.17,4.57,1.73.91,2,4.13.6,5.91a52.88,52.88,0,0,1-8.15,10.6c-2.52,1.88-4.45,4.25-4.66,7.53a6.73,6.73,0,0,1-1.71,4.52c-3.59,7.42-6.05,15.27-9.05,23.18-1.71,4.51-2.84,9.51-6.86,12.64-1,.64-.32,2.2.81,2.63a9.73,9.73,0,0,0,8.71.2,86.55,86.55,0,0,1,11.81-6.63c7.68-4.58,15.9-9.22,22.34-15.3a11.35,11.35,0,0,1,3-2.48c10.68-7.05,20.18-15.08,30.87-22.14s21.26-15.19,33.24-20.2c2.09-.76,4.13-2.05,6.87-1.79,1.61-.16,2.74.27,2.91,1.88.64,1-.32,2.2-1.34,2.85M583,453.42c-.54.05-.48.59-.43,1.13,0-.54,0-.54.48-.59Zm90.81-9.23c0-.54-1.13-.43-1.07.11m12.49,48.14c.06.53.59.48.54-.06l-.05-.54-.54.06Z" fill="#2d2f30"/><path d="M932.68,459.69c7.14-4.53,14.82-9.11,21.26-15.19,1-.65,2.09-.76,3.6-2a6.21,6.21,0,0,1-3.33,4.68A171.74,171.74,0,0,1,934,461.73a309.47,309.47,0,0,1-41.72,22.15c-7.25,3.46-14.45,7.44-22.24,10.95-9.34,4.21-18.74,7.88-28.14,11.55-5.26,1.62-11.12,2.76-16.6,2.23-9.36-1.22-17.37-5.3-23.08-13.4a116.55,116.55,0,0,0-6.58-11.28,21.43,21.43,0,0,1-2.38-12.79c1-11.5,3.72-22.09,9.25-31.88A62,62,0,0,0,805.1,433c1.12-5,2.89-9,6.32-12.59a16.72,16.72,0,0,0,4.23-6.4c1.61-5.59,4.45-9.68,7.77-14.36,3.76-5.81,7.57-11.09,10.13-17.86l2.36-3.5c6.87-7.21,11.42-15.82,16.57-23.94,2.36-3.5,4.78-6.46,6.54-10.44a104.28,104.28,0,0,1,14.86-19.43c2.41-3,3.64-6.88,6.06-9.84,7.18-9.42,14.37-18.84,22.15-27.77,9.39-9.1,16.41-20.13,24.62-30.19l27.68-32.13c1.93-2.37,3.92-4.2,5.31-6.51l2.42-3c8.58-6.3,14.11-16.1,22-23.42l13.36-12.76c6.92-6.67,13.2-14.37,20.71-20.56a43.33,43.33,0,0,1,8.17-5.17,11,11,0,0,1,5.91-.6c1.13.42,2.25.85,2.36,1.93a1,1,0,0,1-.37,1.66c-.43,1.13-1.45,1.78-2.41,3a5.54,5.54,0,0,0-.38,1.67c.06.54,1.19,1,1.72.91,2.21.32,3.82.16,5.49.53a4.34,4.34,0,0,1,3.77,5.05,14.42,14.42,0,0,1-2.36,3.49,9.65,9.65,0,0,0-3.49,3.07c-8.43,7.92-16.26,16.31-24.09,24.71-2.95,3-6,5.49-8.37,8.45-2,1.83-3.44,3.61-3.7,6.35-.49.59-1,1.18-.91,1.72L996.52,217l.53-.05-1.44,1.77c-3.12,1.41-5.53,4.36-8,7.32-3.43,3.61-7.35,7.81-10.73,12-5.36,6-10.78,11.41-15,18.35l.53-.05-1.44,1.78c-.43,1.12-1.45,1.77-1.34,2.85.43,4.3-1.5,6.66-3.91,9.62-3.32,4.68-7.3,8.35-10,13.51l-1.45,1.78c-5.15,2.69-7.29,8.34-10.62,13a53.91,53.91,0,0,1-4.77,6.46c-5.42,5.43-11.38,10.92-16.1,17.92-5.2,7.59-10.45,14.63-15.71,21.68C889.57,356,882,366.57,875.47,377.55c-2.73,5.16-6.11,9.31-9.44,14-5.2,7.58-9.92,14.58-14,22.59l-5.63,8.72a118.29,118.29,0,0,0-7.77,14.36c-2.25,4.57-5.09,8.66-7.34,13.23-1,1.19-1.39,2.32.92,3.71l-.54.06c-3.91,4.19-6,9.84-7.61,16a2,2,0,0,1-.37,1.67c-.21,3.28,1.62,5.26,4.79,4.4a12.06,12.06,0,0,0,4.25-1,142,142,0,0,0,20.84-8.63,72.89,72.89,0,0,1,17.66-7.77,44.63,44.63,0,0,0,11-4.37,52,52,0,0,1,15.58-7,62.93,62.93,0,0,0,22.29-10.41c6.06-4.42,13.26-8.41,20.4-12.93a10.77,10.77,0,0,1,4.73-1.57c1.13.43,2.2.32,3.38,1.29,1.24,1.5.22,2.15-.21,3.28L946,430.64c-3.16.87-5.69,2.75-8.26,4.1m-14.44,12.87a4.13,4.13,0,0,1,2.57-1.35Zm9.23-5.28.17,1.61c-.06-.54-.11-1.07-.65-1Zm2.52-1.89.17,1.62-2.69.27A12.43,12.43,0,0,1,935.06,440.44Zm2.53-1.88.06.53.1,1.08-2.69.27A11.91,11.91,0,0,1,937.59,438.56Z" fill="#2d2f30"/><path d="M1177,406.09c.11,1.07-.32,2.2.33,3.22a6.71,6.71,0,0,1-1.71,4.52,19.34,19.34,0,0,0-5,4.31c-3,2.47-6.6,4.47-8.42,7.91a19.19,19.19,0,0,0-4.62,2.64c-18.14,13.79-36.93,26.56-55.67,39.86-11.65,8.25-23.41,15.41-36.94,21.13a46,46,0,0,1-12.2,2.87,14.72,14.72,0,0,1-9.57-3.37c-6.94-4.18-11.36-10.25-12.71-18.25-.33-3.23-.66-6.45-2.6-9.51-1.24-1.51-2.37-1.93-3.92-1.23a49.11,49.11,0,0,0-5.1,3.23c-8.11,5.71-16.22,11.42-24.91,16.65-14.23,9.59-28.46,19.18-44.68,25.17a57.07,57.07,0,0,1-10,3.18,13.28,13.28,0,0,1-12.32-3.63c-1.24-1.5-3-2.41-4.19-3.92-4.15-3.38-6.2-7.51-7.28-12.83-.81-2.63-1.08-5.32-1.89-8-2.12-10.1.18-19.57,6.34-28.34a66.32,66.32,0,0,1,5.26-7.05,121.05,121.05,0,0,1,28-29.44c3.49-3.07,7-5.6,9.93-9.15a38.09,38.09,0,0,1,9-7.43c7.57-5.66,15.68-11.37,25.08-15a1.67,1.67,0,0,0,1-.64c2.63-.82,21.27-4.34,24-4.07,7.63.31,13,4.65,17.37,10.72,1.3,2,2.7,5.15,4,7.73,1.24,1.5,2,3.6,3.24,5.1.64,1,1.77,1.45,3.33.75.54-.06,1-.65,2-1.3,4.19-1.51,8.12-.28,9.09,4s1.84,7.41,5.34,9.77a4.13,4.13,0,0,1,1.35,2.58c1.29,2-.7,3.87-.48,6-.32,2.2,2.53,3.54,2.8,6.23a5.3,5.3,0,0,1-1.87,2.9c-6.5,5.55-7.82,13.83-10.88,21.2a2.4,2.4,0,0,0,.28,2.68,4.84,4.84,0,0,0,2.74.27c6.76-2.86,13.53-5.72,19.06-10.08,9.07-6.9,18.74-13.31,27.86-19.66l3.6-2c8-6.78,17.29-11.53,25.34-17.78,2-1.29,3.55-2.53,5.64-3.28,5.8-1.68,10.36-4.86,15.46-8.09a49.07,49.07,0,0,1,8.7-5.23,2.67,2.67,0,0,1,3.45,1.83,13.37,13.37,0,0,1-1.66,5.05,2,2,0,0,1,1.66.37C1176.75,398.51,1177.39,399.53,1177,406.09Zm-148.87-1.16c-2.21-.32-4.41-.64-6.51.12-12.73,2.92-24.65,8.47-34,18.11-.48.59-1,.65-1,1.18-2.63.82-4.61,2.65-6.6,4.48-6.44,6.08-12.94,11.63-18.78,18.19s-11.64,13.67-16.9,20.72a4.67,4.67,0,0,0-1.28,3.39c-.49.59.16,1.61.75,2.09.06.54,1.13.43,1.67.38a4.18,4.18,0,0,0,2.58-1.35,44.55,44.55,0,0,1,11.38-5.5,61.8,61.8,0,0,0,12.78-7.81,11.72,11.72,0,0,1,4-3.13c10.14-7,20.29-14,31-20.52,5.05-3.77,10.09-7.55,15.08-11.85a42.74,42.74,0,0,0,9-12.86C1032.72,407.72,1031.43,405.68,1028.1,404.93Z" fill="#2d2f30"/><path d="M1831.16,143.23a21.13,21.13,0,0,1-4.82,7,621.13,621.13,0,0,0-52.29,74.93c-10.36,16.59-20.71,33.18-29,51.91-4.42,9-9.33,17.33-13.74,26.35a47.33,47.33,0,0,1-4.28,7c-1.67,8.54-5.36,14.94-8.56,22a179.89,179.89,0,0,0-9.78,24c-.77,3.27-2.66,7.14-4,10.38-4.55,11-8.52,21.37-11.5,33.15-2.26,9.16-5,17.63-7.81,26.75a34.78,34.78,0,0,1-3.15,6.44,8.52,8.52,0,0,0-.91,5.27,7.46,7.46,0,0,1-2.66,7.13c-1.17,1.26-1.8,2.54-1.35,3.91,2.23,6.81.16,13.32-1.92,19.83l-.09,1.33c.4,2-.28,4-1,5.93-1.26,2.57-2.48,4.48-2.66,7.13-1.28,10.57-2,21.17-.54,31.26.26,4,1.06,8.06,3.57,10.9l-.54,0,1.39,3.42c2.42,4.16,6.15,5.09,10,4a80.12,80.12,0,0,0,17.26-6.79c5.66-3.6,10.78-7.24,16.4-10.18,4.54-3,9-5.37,12.1-10.48,0-.66,1.17-1.25,1.71-1.21,7.37-4.82,12.72-11.77,19.6-17.28a22.89,22.89,0,0,0,5.76-4.93c4.63-4.34,9.31-9.34,14.43-13,1.67-.55,2.88-2.47,4.05-3.72,6.34-5.55,12.68-11.1,19.07-17.32,4-3.71,8.67-8.05,12.77-12.43a165.84,165.84,0,0,1,14.52-14.3,69.24,69.24,0,0,0,5.9-6.92,44.13,44.13,0,0,1,10.48-10.59,35.83,35.83,0,0,0,7-6.84c6.52-8.2,13.59-16.37,21.59-22.47a48.72,48.72,0,0,0,7.6-8.13,75.09,75.09,0,0,1,11.16-12.54,47.39,47.39,0,0,0,10.52-11.25,22.69,22.69,0,0,1,5.76-4.93c1.71-1.21,4.31.3,4.13,2.95a22.4,22.4,0,0,1-1,5.93,20.58,20.58,0,0,0-4.27,7,12.21,12.21,0,0,0,4.27-7A22.33,22.33,0,0,1,1913,346c3.23.22,4.67,3,3.9,6.26a16.12,16.12,0,0,1-5,9c-7.51,6.8-13.31,19.69-19.75,26.56-9.94,10.63-19,20.51-28.93,30.47-18,18.06-35,37-53.62,55-22.13,22.44-39.86,40-64,59.62-5.71,4.27-18,12.9-23.64,15.88-1.16,1.25-6.44,9.42-5.82,4.89l1.35-4.84c.45,1.36,1,1.4,1.57.78,2.2-.52.61-10.68,2.85-11.86,4.54-3,12.68-4.86,17.26-8.53,11.42-8.53,22-9.32,31.87-18.62,16.77-15.48,28.48-36,44.71-51.5,13.4-13.72,25.74-26.35,43.71-36.91l28.6-30c6.44-6.88,13.5-15,20-22.58,2.92-3.13,5.26-5.63,9.22-8-.73,2.61-3.07,5.11-5.41,7.61-5.35,7-10.66,13.25-16.51,19.5l-59.55,62.45c-18.74,20-38.42,38.62-58.1,57.22-13.9,13-28.33,26-43.22,37.61A99,99,0,0,1,1708,560.76c-14.47,5.66-34-1.68-42.38-13.58-3.94-5.6-7.93-10.54-11.29-16.76-3.85-6.93-5.5-14.36-6-23a135.65,135.65,0,0,1,.55-39.24,10.16,10.16,0,0,0,.82-3.94c.88-20.58,7.06-39.45,12.21-59.07l6.64-25.5a83.1,83.1,0,0,1,4.51-10.34,81.82,81.82,0,0,0,6-16.23c2.89-10.45,6.32-20.87,12.3-29.11a31.59,31.59,0,0,0,2.62-6.47c5.46-16.27,13-31.06,20.5-45.85a15.12,15.12,0,0,0,3.06-5.11c4.78-14.32,13.15-25.72,20-37.9,3.11-5.77,6.71-10.85,9.82-16.63,3.6-5.07,7.2-10.15,9.27-16.66l2.44-3.83c5.44-8.28,10.84-15.89,16.29-24.17a136.88,136.88,0,0,0,7.83-11.44l3.55-4.41c7.56-7.47,13-16.41,19.08-25.31a41.89,41.89,0,0,1,4.72-5.66c8.19-8.76,16.33-16.85,23.49-26.34,6.47-7.54,13.44-14.38,20.42-21.22l6.88-5.51a69.82,69.82,0,0,0,10.38-9.27c1.22-1.91,3-3.79,4.63-4.34,7.42-5.48,14.3-11,21.77-17.13,1.17-1.25,2.83-1.8,4.54-3s3.37-1.76,4.54-3c3.51-3.75,8-6.77,12.94-7.09l3.37-1.77c4.63-4.34,10.21-6.61,15.78-8.89L1941,11.7c9.62-6,19.5-8,29.43-10.61,7.14-1.51,14.73-1.65,21.6.83,6.32,2.43,10.85,7.41,13.63,14.26,7.92,18.52,10.31,38.66,4.58,58.9l-2.17,7.84a23.15,23.15,0,0,1-3.15,6.44,39.06,39.06,0,0,0-6.66,10.19l-18.2,36c-1.89,3.86-3.83,8.38-5.72,12.25-2.29,1.84-4.14,5-6,8.24-9.82,16.63-20.62,31.86-30.93,47.79a188.9,188.9,0,0,1-16.11,21.51l-1.84,3.21c-1.17,1.25-2.34,2.5-3.87,1.06a3.16,3.16,0,0,1-1.34-4.09c.19-2.65.91-5.26,1.14-8.57l.14-2c2-5.19,4-10.38,6.48-15.53,9.87-17.29,19.77-35.25,30.22-53.16,14.67-24.28,27.29-50,38.87-76.53,2.52-5.15,4-10.38,6-15.57.68-1.95.81-3.93,1.49-5.89.86-4.6,0-7.32-3.67-9.57-8.88-4.61-17.46-5.87-26.9-2.53a177.46,177.46,0,0,0-25.61,10.21c-9.08,6-18.11,11.39-27.24,18.09-14.21,9.66-27.47,21.39-40.74,33.12-2.33,2.5-4.09,4.38-7.46,6.14,1.89-3.86,4.77-6.32,7.11-8.82,5.76-4.93,11-9.9,16.19-14.86,2.34-2.5,5.6-15.72,6.91-18.95,6.65-2.21,10.8,5.53,15.53-.13-6.61,1.54-12.77,4.44-17,11.47C1894,73,1920.78,49.8,1919.07,51c.81,8-39.24,38.33-44.69,46.6-.62,1.29-10.34,8.61-10.92,9.23-5.08,3-1.16-6.73,0,0a52.87,52.87,0,0,1-10.08,12.62L1837.55,137c-2.34,2.5-4.14,5-6.39,6.22M1823.42,122l-.53,0-.05.71C1822.89,122,1822.89,122,1823.42,122Zm44-48.87,1.71-1.3C1868.54,72.52,1868,73.19,1867.42,73.15Zm1.17-1.34.54,0Zm50.3,274.41s-.54,0-.59.67l0-.71Z" fill="#2d2f30"/><path d="M2225.13,305c.11,1.08-.32,2.21.33,3.22a6.65,6.65,0,0,1-1.71,4.52,19.49,19.49,0,0,0-5,4.31c-3,2.48-6.61,4.47-8.43,7.91a19.89,19.89,0,0,0-4.62,2.64c-18.14,13.79-36.93,26.56-55.67,39.87-11.65,8.24-23.4,15.4-36.94,21.12a46,46,0,0,1-12.2,2.87,14.67,14.67,0,0,1-9.57-3.37,25.65,25.65,0,0,1-12.71-18.25c-.33-3.23-.66-6.45-2.59-9.51-1.24-1.5-2.37-1.93-3.93-1.23a49.11,49.11,0,0,0-5.1,3.23c-8.11,5.71-16.22,11.42-24.91,16.65-14.23,9.59-28.46,19.18-44.68,25.17a57.64,57.64,0,0,1-10,3.19,13.29,13.29,0,0,1-12.31-3.64c-1.24-1.5-3-2.41-4.2-3.92-4.15-3.37-6.19-7.51-7.28-12.83-.81-2.63-1.08-5.32-1.89-7.95-2.12-10.1.18-19.56,6.35-28.33a63,63,0,0,1,5.25-7,121.1,121.1,0,0,1,28-29.45c3.49-3.07,7-5.6,9.93-9.15a38.09,38.09,0,0,1,9-7.43c7.57-5.66,15.68-11.37,25.08-15a1.65,1.65,0,0,0,1-.64c2.63-.81,21.28-4.34,24-4.07,7.63.31,13,4.65,17.37,10.72,1.3,2,2.7,5.15,4.05,7.73,1.24,1.51,2,3.6,3.23,5.1.65,1,1.78,1.45,3.33.75.54-.05,1-.65,2-1.29,4.2-1.51,8.12-.28,9.09,4s1.84,7.41,5.34,9.77a4.18,4.18,0,0,1,1.35,2.58c1.29,2-.7,3.87-.48,6-.32,2.2,2.53,3.54,2.81,6.23a5.43,5.43,0,0,1-1.88,2.91c-6.49,5.54-7.82,13.82-10.87,21.19a2.4,2.4,0,0,0,.27,2.69,4.92,4.92,0,0,0,2.74.26c6.77-2.86,13.53-5.72,19.06-10.08,9.07-6.89,18.74-13.31,27.87-19.66l3.6-2c8-6.78,17.28-11.53,25.33-17.77,2-1.3,3.55-2.54,5.64-3.29,5.8-1.68,10.37-4.85,15.47-8.09a48.36,48.36,0,0,1,8.7-5.23,2.66,2.66,0,0,1,3.44,1.83,13.37,13.37,0,0,1-1.66,5.05,2,2,0,0,1,1.67.37C2224.91,297.4,2225.55,298.42,2225.13,305Zm-148.87-1.16c-2.21-.32-4.41-.64-6.51.12-12.73,2.92-24.65,8.48-34,18.11-.48.59-1,.65-1,1.19-2.64.81-4.62,2.64-6.61,4.47-6.44,6.08-12.93,11.63-18.78,18.19s-11.64,13.67-16.9,20.72a4.7,4.7,0,0,0-1.28,3.39c-.48.59.16,1.61.76,2.1,0,.53,1.13.42,1.66.37a4.13,4.13,0,0,0,2.58-1.35,44.71,44.71,0,0,1,11.38-5.5,62.13,62.13,0,0,0,12.79-7.81,11.71,11.71,0,0,1,4-3.13c10.15-7,20.29-14,31-20.52,5.05-3.77,10.1-7.54,15.09-11.85a42.89,42.89,0,0,0,9-12.86C2080.88,306.61,2079.59,304.57,2076.26,303.82Zm136-3c-.54.06-.54.06-1,.65a.52.52,0,0,0-.48.59l.53-.05Z" fill="#2d2f30"/><path d="M2435,308.09c1.57,4.72-2.14,5.64-5.2,7.58a325.32,325.32,0,0,1-31.09,14.56c-30.61,14-62,25.85-93.46,36.65a303.41,303.41,0,0,1-52.92,13.52l-10.21,1c-6.56-.42-13,.24-19.45.9a56.89,56.89,0,0,1-16.88-.46c-10.48-1.65-20.06-10.45-22.18-20.55a111,111,0,0,1-1.91-18.81,34.49,34.49,0,0,1,2.24-10,69.35,69.35,0,0,1,8.47-18.23c5.2-7.59,10.45-14.64,15.71-21.69,6.33-7.15,12.18-13.72,21-17.34,1.56-.7,2.52-1.88,3.54-2.53,5.42-5.43,12.3-7.22,18.64-9l11.82-1.2c5.91-.6,11,1.06,16.08,3.25a12.8,12.8,0,0,1,6.62,6.39c3.28,5.64,6.09,11.87,6.75,18.31,1,4.79.33,8.66-2.57,12.21-1.82,3.44-4.18,6.94-5.46,10.33a11.14,11.14,0,0,1-3.86,4.73c-3.55,2.53-7.53.77-9-2.89a18.19,18.19,0,0,1,1-12l2.67-5.7c1.77-4,.48-6-2.86-6.77a41.23,41.23,0,0,0-11.44-.46c-6.34,1.73-12.09,3.94-17.62,8.3-4,3.13-8.05,6.25-11.43,10.4-9.23,10.71-18.45,21.42-24.78,34-3.21,5.76-2.83,9.52,4.75,9.29,8.76.74,17.3-.67,28.64-1.28,9.73-.44,21.44-2.72,33.58-6.13,9-2.54,17.89-5.61,26.81-8.69,10-3.19,19.39-6.86,29.38-10.05,13.7-4.1,26.16-9.71,39.26-14.3A48.82,48.82,0,0,0,2380.5,306c1-.64,2.53-1.88,3.6-2l35.56-13.39a37,37,0,0,1,7.41-1.84c2.63-.81,6.67,1.5,5.39,4.89-.27,2.74,1,4.78,2.86,6.76,1.77,1.45,2,3.6.6,5.91C2435.43,307,2434.41,307.6,2435,308.09Z" fill="#2d2f30"/><path d="M2453.46,324.13a10.85,10.85,0,0,0,4.52,1.71c6.66,1.49,13.16,1.38,20.15.67,9.08-1.47,18.64-3.53,27.67-5.53a146.75,146.75,0,0,0,25.62-9.66l1.61-.17c14.67-5.29,28.52-13.21,42.43-20.59l24.27-12.24c5.21-2.16,10.37-4.86,15.52-7.55l4.67-2.11c3.66-1.45,6-.06,6.36,3.7.27,2.69,1.5,4.19,3.34,6.18,2.36,1.93,3.17,4.56,1.24,6.93-.91,1.72-.8,2.8.39,3.76.64,1,.75,2.1,1.4,3.12a7.76,7.76,0,0,1-3.12,1.4c-2.68.27-4.67,2.1-6.71,3.39a492.21,492.21,0,0,1-46.13,26.95c-19.11,9.54-38.23,19.09-58.75,25.52-12.68,3.46-25.36,6.92-38.85,7.74-11.34.61-21.34-1.63-30.75-8.81-7.11-5.8-11.69-13.48-14.28-23-1.14-5.86-1.8-12.31-2.4-18.22-1.36-13.43,2.33-25.21,9.35-36.24,5.63-8.72,13-16.52,19.85-23.73s15.3-9.7,24.38-11.17c6.45-.65,12.1,1.49,15.87,6.53,5.65,7.57,10.29,15.79,11.86,25.94a18.81,18.81,0,0,1-3.79,16.13c-2.84,4.09-5.74,7.64-7.4,12.7a13.9,13.9,0,0,1-5.36,6,194.72,194.72,0,0,1-31.36,17.31,18.25,18.25,0,0,1-5.32,1.08m6-37.52c.33,3.22,1.51,4.19,3.61,3.43a45.79,45.79,0,0,0,11.33-6c4-3.12,6.87-7.21,9.65-11.84a4.59,4.59,0,0,0-.38-3.76,2.55,2.55,0,0,0-3.28-.21c-4.78,1-8.27,4.1-11.27,6.58-2.53,1.88-3.92,4.2-6.5,5.54C2466.34,279.93,2464.89,281.7,2465.7,284.34ZM2632.81,294c-1.07.11-2.2-.32-3.28-.21A6.82,6.82,0,0,1,2632.81,294Z" fill="#2d2f30"/><path d="M2822.36,283.93c3.71-.92,7.36-2.38,11.07-3.3l1.07-.11c.06.54.11,1.08-.43,1.13l-1.5,1.24a27.05,27.05,0,0,1-6.34,1.73c-24.87,6.33-50.39,11.64-75.65,14.2a171.31,171.31,0,0,1-33.65.16,51.48,51.48,0,0,1-26.67-11.4c-5.33-4.35-8.56-9.45-10.88-16.27-1.79-6.88-4.59-7.68-9.47-2.3l-7.4,7.27c-.49.59-1,1.19-1.45,1.78l.54-.06,1.07-.11c-.48.6-1,1.19-1.45,1.78a76.91,76.91,0,0,0-11,9.26,10.79,10.79,0,0,1-4.08,2.59l-2.9,3.55a6.53,6.53,0,0,1-2.41,3l-1.61.16a11.7,11.7,0,0,0-2.25,4.58c-.21,3.27-2.79,4.62-4.18,6.94a4.65,4.65,0,0,1-3.06,1.93c-2.21-.31-3.71.92-3.49,3.07a14.09,14.09,0,0,1-3.16,6.3c-5.15,8.12-12,15.33-18.35,22.49-1.39,2.32-6.87,1.79-8.28-1.33-1.24-1.5-1.94-3.06-4.2-3.91a3.8,3.8,0,0,1-2.64-4.62c-.38-3.76-.28-8.12-2.27-11.72-.81-2.63.53-5.48,1.38-7.74,6.21-13.66,12.48-26.78,18.75-39.91a123.29,123.29,0,0,1,5.89-11.45c1.88-2.91,5.1-3.24,7.1.36.65,1,.81,2.63,1.46,3.65,1.88,2.53,4.14,3.38,6.66,1.5,1.56-.7,2.52-1.89,4-3.13,4.4-4.79,8.8-9.58,13.25-13.83,6.38-6.62,12.72-13.78,20.93-18.41,2.1-.76,4.14-2.05,6.77-2.86,3.65-1.46,7-.71,9,2.88,4.53,7.15,9,13.75,10.41,22.29a10.59,10.59,0,0,0,.92,3.71,6.3,6.3,0,0,0,4.9,5.47,11.93,11.93,0,0,1,2.85,1.34c12.74,2.51,25.43,4.48,38.32,3.17,4.84-.5,9.73-.45,14.57-.94a20.54,20.54,0,0,0,8.06-.82c5.32-1.08,11.23-1.68,16.6-2.23,14-.88,27.73-5,41.75-5.87,2.69-.27,5.8-1.68,9-2.54l4.84-.49a2.71,2.71,0,0,1,1.57,4.72c-1.51,1.24-3,2.48-5.16,2.7-1.56.7-3.17.86-4.72,1.57a1.89,1.89,0,0,0-1,.64,1.44,1.44,0,0,0,1.78,1.45A20.38,20.38,0,0,1,2833,266c4.19-1.51,6.55.42,7.37,3.05s-1.13,5-4.19,6.94c-1.55.7-3.17.87-4.72,1.57m-78,18.24,54.19-22.34a2,2,0,0,0-1.66-.37,3.23,3.23,0,0,0-2.1.75Z" fill="#2d2f30"/><path d="M2833.43,281.17m-11,5.46a13.88,13.88,0,0,0,5.3,1.64c7.82,1.37,15.49,1.14,23.73.3,10.73-1.64,22-3.87,32.71-6a199.67,199.67,0,0,0,30.37-10.14l1.9-.2c17.37-5.56,33.84-13.75,50.37-21.4l28.82-12.7c6.18-2.26,12.3-5.05,18.43-7.85l5.54-2.19c4.33-1.53,7-.17,7.41,3.59.28,2.69,1.71,4.17,3.83,6.13,2.75,1.89,3.66,4.51,1.34,6.92-1.1,1.74-1,2.81.39,3.76.74,1,.85,2.08,1.59,3.09a10.17,10.17,0,0,1-3.7,1.47c-3.17.32-5.54,2.19-8,3.52-17.57,9.93-35.83,19.39-54.84,27.83-22.7,9.91-45.4,19.82-69.7,26.63-15,3.7-30,7.39-45.91,8.47-13.37.81-25.12-1.25-36.08-8.28a41.12,41.12,0,0,1-16.42-22.77,177.59,177.59,0,0,1-2.48-18.2c-1.37-13.44,3.19-25.3,11.67-36.48,6.79-8.83,15.59-16.78,23.81-24.13s18.21-10,28.94-11.63c7.61-.77,14.23,1.27,18.58,6.25,6.52,7.49,11.84,15.63,13.51,25.78a17.23,17.23,0,0,1-4.76,16.23c-3.42,4.14-6.9,7.75-8.95,12.85a15.8,15.8,0,0,1-6.43,6.08,253,253,0,0,1-37.27,17.9,25.24,25.24,0,0,1-6.28,1.19c-.64.06-1.91.19-2-.89m9.72-36.81c.33,3.22,1.71,4.17,4.19,3.37a60,60,0,0,0,13.46-6.25c4.8-3.21,8.23-7.36,11.59-12a3.94,3.94,0,0,0-.38-3.76,3.38,3.38,0,0,0-3.86-.15c-5.65,1.11-9.82,4.25-13.41,6.79-3,1.93-4.69,4.28-7.75,5.67C2838.43,242.12,2836.69,243.92,2837.6,246.55Zm33.57,15,163.17-8.43c-1.26.12-2.59-.28-3.86-.15A9.35,9.35,0,0,1,3034.34,253.16Z" fill="#2d2f30"/><path d="M3006.13,345.25c-.37,1.81-2,3.71-3.3,5.5-6,8.29-13.53,16.15-21.92,24a104.35,104.35,0,0,1-14.64,10.78c-2.64,1.62-5.44,2.71-8.69,2.23a13.27,13.27,0,0,0-3.17-.22c-4.4.14-7.39-1-9.79-3.13l-5.51-5.23a12.83,12.83,0,0,1-2.75-4.89,27.11,27.11,0,0,1,2-16.22c1.37-2.95,2.66-6.17,3.95-9.39,1.65-5,4.76-9.63,8.2-14.6a25.81,25.81,0,0,0,2.11-3.46c4.66-8.46,12.15-16.32,20.06-24.3.33-.38.74-.5.67-.76,5-7.15,14.37-13.26,19.81-20.53.67-.76,1.82-1.38,2.49-2.14l6.39-5.55c6.06-5.17,12-10.6,18.65-15.36,4.72-3.64,7.72-7.07,9.19-11.19l-.49-30.86a10.16,10.16,0,0,1,8.09-1.2c4,1.41,8.25,2.44,11.14,4.73a12.87,12.87,0,0,1,4.62,5.21l.07.26a5.57,5.57,0,0,1,1.45,5l.41-.12,1.23-.35c-.41.12-.75.5-1.16.62l-.41.12c.15.52-.18.9,0,1.43-.1,1.16-.62,2.45.91,3.15,2.36.45,3.69-1.07,5.25-1.81a44.76,44.76,0,0,1,5.51-2.45,69.51,69.51,0,0,0,10.13-4.92,182.31,182.31,0,0,1,22.78-10.3,29,29,0,0,0,6.33-2.69c9.79-4.54,20.37-7.89,30.87-11.5a50.65,50.65,0,0,1,6.14-1.78c4.26-.66,7.43-.44,9.42,1.82a5.2,5.2,0,0,0,2.24,1.63,4.87,4.87,0,0,1,3.32,5.3c0,1.69-.63,2.45-3.16,2.9a8.66,8.66,0,0,1-2.61.19c-3.51.16-7.12,1.49-10.32,2.7-8.87,3.14-16.68,6.83-24.91,10.63-3.94,1.71-8.22,3.81-12.58,5.64-11.09,4.63-22,10.06-32.83,15.48-6.58,3.33-13,7.19-19.45,11a41,41,0,0,0-4.31,3.52.9.9,0,0,1,.38,1.32,17.26,17.26,0,0,1-3.57,3,8.93,8.93,0,0,0-4.41,4.69c-2.14,4.89-4.2,10-5.93,14.8a9.68,9.68,0,0,0-.88,3.1M3025,307.64a8.09,8.09,0,0,0-.8,3.36c-.33.39-1.08.89-1.33,1.53-2.81,5.65-7.33,11.51-7.78,17.61-.27,1.44-.92,1.77-.92,3.12a16.5,16.5,0,0,0-2.15,3.17c-.88,3.1-4,6-5.88,8.82-1.38-.17-2.21.07-2.79,1.09m-46.75,15c-3.08,3.17-2.66,6.18-3.54,9.28-.1,1.16.38,1.31,2.1,1.1a13.93,13.93,0,0,0,8.23-3.81l2.07-2c5.32-4.67,9.65-9.62,14.48-14.44a42.86,42.86,0,0,0,4.93-6c2-3.72,5-7.41,7.07-10.87a42.89,42.89,0,0,0,4.29-6.65,191.34,191.34,0,0,0,10.15-21.71c2-4,4.88-7.67,4.15-11.72-.07-.27.34-.38.67-.77-.07-.26.18-.9-.71-.93a2.25,2.25,0,0,0-1.16.62c-3.49,3.29-7.05,6.31-10.47,9.86m-39.41,54.08-.41.12-1.44,2.69m7-17.37" fill="#2d2f30"/><line x1="376.67" y1="294.96" x2="148.07" y2="578.83" fill="#2d2f30"/><polyline points="148.07 578.83 173.02 565.69 229.25 524.67 286.36 458.17 346.44 375.45 369.57 319.54" fill="#2d2f30"/><polyline points="234.04 316.44 138.67 475.02 36.41 676.92" fill="#2d2f30"/></svg>