<svg id="Layer_1" data-name="Layer 1" xmlns="http://www.w3.org/2000/svg" viewBox="0 0 2521.65 675.94"><title>Logo-nombre-negro</title><path d="M145.92,522.31a1.42,1.42,0,0,0-1-.65m-4,7.6c-8,6.94-16.9,10.68-25.82,13.15-8.43,2.47-17.34,3.66-25.76,5.5a14.65,14.65,0,0,1-7.41-.06c-4.93-1.32-8.9.55-12.4,4.34-1.5,1.9-3,2.52-4,5.06A1.34,1.34,0,0,0,67,558.54h-.49c-1,3.81-3,5.71-5,7.6a2.63,2.63,0,0,0-.52,3.18l-5,6.32c-1,1.26-1.51,3.17-2.51,4.43-2.5,3.16-1.56,8.26-5,11.42-3,1.88-4.51,6.32-6,10.13a107.68,107.68,0,0,0-7.58,17.76,23.35,23.35,0,0,1-1.51,3.8c-5.51,7.59-8.07,17.76-12.59,26-3.51,5.7-5.54,12.05-7.58,19a17.85,17.85,0,0,0-2,4.44c-2,4.44-6.46,4.4-8.4-.07-2.4-7.66-4.32-14.68-.79-22.92C7,637,12.53,625.54,18.08,613.49l10.6-24.73c2.51-5.07,5.53-10.78,8.54-15.84,4.54-10.15,8.58-20.3,14.6-29.79.5-1.27,1-1.9,1-3.18,1.51-2.53,1-5.72-.42-8.28-1.47-1.28-2.44-3.2-3.91-5.12-2.94-3.21-4.87-8.32-6.81-12.79a29.32,29.32,0,0,1-1.4-9.57c.52-3.17,2.52-5.07,5-3.77a100.93,100.93,0,0,1,11.31,6.46l3,1.94c4.92,2.59,7.39,2.61,10.9-3.09a96.54,96.54,0,0,0,8-15.21A103.42,103.42,0,0,1,89,470.88a15,15,0,0,0,2.52-5.07c4.53-10.14,10.55-19.64,15.58-29.78,2-3.17,4-7,6-10.77,3.51-6.34,6.54-13.31,11-19a15.15,15.15,0,0,0,2.52-5.07c4.54-10.78,11.05-20.91,17.07-31.05,9.55-17.1,21.55-32.27,31.09-50,8.54-15.21,18.54-28.49,28.06-43.05a275.21,275.21,0,0,1,18-25.3,69.72,69.72,0,0,1,12.47-13.26h1.49c1,.65.48,1.28,0,2.55v.64c-.51,1.26,0,1.91,1,2.55,1,0,1.49-.62,2-.62,2.47.66,3.43,3.21,2.91,6.39-.5.64-.5.64-.51,1.27-4.5,7-7.05,15.22-12.54,21.54-2.5,3.16-5,6.95-7.51,10.75-6,10.13-12.53,19.63-19,29.12-2.51,4.43-4.53,9.51-7.54,13.94-4.51,7-9,14.56-13.05,22.16L170,365.92c-1,2.54-2.51,4.43-2,7.62-1.51,2.53-3,5.7-5.51,7.59a6.35,6.35,0,0,0-2.5,3.8,15.25,15.25,0,0,1-1.51,3.17c-4.48,3.78-7,9.49-8.05,15.84-1,5.08-3.54,9.52-6.53,12-4.49,4.42-7.5,9.48-10.52,15.18l-2,3.65c.5,0-.81,1.48-.31,1.48l-.69,1.85a14.39,14.39,0,0,1-5,9.51c-1.49.62.51-1.91,0,0l-1.45,2.5c.5,0-2.07,3.83-1.57,3.84a53.43,53.43,0,0,1-8.54,15.2l-.5,1.27a4.66,4.66,0,0,0-.52,2.54l-2,.83,1.56-4c-.5,1.27-1,1.9.47,3.19-1.5,1.26-2,2.53-3.49,3.79-2.49,1.89-4,4.42-4.53,8.87s-3.53,8.25-6.52,10.77a31.44,31.44,0,0,0-7.5,9.48c0,.63-.52,2.54,0,2.54,1,1.29.89,2.31,1.88,1.68,1.44,4.47,4.5,3.47,8,2.87a41.51,41.51,0,0,0,16.85-5.58c7.45-3.76,14.4-7.52,21.36-11.91a216.8,216.8,0,0,0,31.84-22.64c3.49-3.15,7.46-5.67,11.45-8.81a50.11,50.11,0,0,0,8.46-6.93c10-10.1,19.95-20.2,29.43-30.3,11.48-12,22-24.63,32.47-37.91,1-.63,1.5-1.9,2-2.53,13-12,21.51-29.09,32.51-43.64A534.6,534.6,0,0,0,320,286.38c4.53-9.5,9.07-19,13.11-29.16,8.09-20.94,5.79-40.06-5.43-57.34-3.9-6.4-8.79-12.17-14.2-16-9.33-7.08-18.66-13.53-29-16.81a88.1,88.1,0,0,0-21.71-4.64A221.18,221.18,0,0,0,208.85,167a294.18,294.18,0,0,0-54.55,18.62c-4.85,2.46-5.13,2.57-14.88,6.24l-8.54,4.44c-29.91,18.37,9.42-19.13,3.1-4.49l5.44.05c-2,2.52-5,3.77-7.46,5.66-8,4.39-15.9,9.41-23.36,14.44-4.48,3.14-9.46,6.92-14.42,9.42a14.85,14.85,0,0,1-9,7.56c-2.48,1.25-4.47,3.14-7,5-9.46,6.92-16.47,17.68-24.46,27.16-2.5,3.16-6,6.95-6.54,12.67l-1.5,1.9c-5.5,7-9.52,15.19-12.58,24.72a46.7,46.7,0,0,0-2.08,12.07c0,4.46-.57,8.91-.6,12.73-.58,8.91,1.83,15.93,6.73,21.07a129.77,129.77,0,0,0,10.31,9c5.4,3.23,11.31,6.46,16.72,9.06,2,.65,3,1.3,2.93,4.48,0,1.27,1.47,1.92,2.45,2.57l3,1.93c1,1.28,1,3.19,0,3.82a12,12,0,0,1-3.49,2.52c-.5.63,0,1.27.48,1.91,1.48.65,1.47,1.92,0,2.55-1.48,0-3.47.6-5-.05-7.9-.07-14.79-3.95-21.17-9.09a69.17,69.17,0,0,1-19.55-25.64,33.79,33.79,0,0,1-3.37-10.21c-5.25-21.69-5.55-44,3-64.91,2-5.71,5-10.78,7.56-16.48,7-12.67,16-24,24.53-35.44a7.05,7.05,0,0,1,2.5-3.16c9-6.92,16.46-17,25.42-24a239,239,0,0,1,24.06-17.27c5.92-3.58,9.26-5.36,14.74-9.77a95.49,95.49,0,0,1,20.85-10.64c4-1.87,8.44-3.74,11.92-6.26,5-3.78,10.43-5,15.87-6.23,5.95-1.22,11.89-2.44,17.85-5.57,3.48-1.88,7.44-2.48,11.4-3.08,5.94-1.22,11.89-3.08,17.84-4.94a117.32,117.32,0,0,1,25.72-2.32,25.39,25.39,0,0,0,6.93-.58c5.94-.58,12.36.11,18.28.8,9.38,1.36,17.77,4,26.64,6.6,1.48.65,3.46.67,4.93,1.95,8.36,5.17,17.71,9.7,25.55,18.05a94.79,94.79,0,0,1,22.79,50.49,180.78,180.78,0,0,1,.07,49,168,168,0,0,1-7.16,27.31c-1,4.44-2.55,8.89-3.58,13.33-1.53,5.08-4,9.52-6.05,13.32-2,4.44-4.52,8.23-7,12.67-1.51,2.53-2,5.07-2.55,8.89q-1.47-1-1.5,1.89v-.63c-1.49,1.89-3.49,3.79-5,6.32-6.51,9.49-13,19.62-19.05,29.75a17.45,17.45,0,0,0-2,4.44c-3,2.52-5,5.69-7,9.49-4,5.69-8.5,11.38-13,17.07-8.5,10.11-17,20.86-25.49,31.61l-18.47,20.84c-1.5,1.9-3,2.52-3.51,5.07-1,3.17-3,4.43-5,5.68-2.48.62-.93,1.17-2.44,3.7-1.5,1.9-4.06,3.88-2.58,4.53-3,2.52-5.45,5.37-9.44,5.65-2.79.19,8-5.48-3.5,5.06-3.18,2.9-1,2.54-2,3.8a28,28,0,0,1-6.95,4.4l1.51-3.81a6.23,6.23,0,0,0-1.51,3.81,28,28,0,0,1-4,4.42c-6.47,5.67-13,11.34-19.92,16.38-5,3.14-9.94,6.91-14.92,10.69s-10.44,6.91-16.38,8.13M84.94,542.78m50.58-17.38-31.63-.92s0,.64-.5.64C103.39,524.48,103.39,524.48,103.89,524.48Zm52-7.18c-.49,0-1.48.62-2,.62M175.5,362.78H175l.5-.63Zm2.43,117.79" fill="#2d2f30"/><path d="M531.29,430.77c.1,1-.29,2,.3,3a6.11,6.11,0,0,1-1.56,4.13,17.82,17.82,0,0,0-4.57,3.94c-2.75,2.27-6.05,4.09-7.71,7.25a17.6,17.6,0,0,0-4.23,2.41c-16.6,12.62-33.8,24.31-50.95,36.48a176.57,176.57,0,0,1-33.81,19.34,42.28,42.28,0,0,1-11.16,2.62,13.41,13.41,0,0,1-8.76-3.08,23.51,23.51,0,0,1-11.64-16.71c-.3-2.95-.6-5.9-2.37-8.7-1.13-1.37-2.17-1.77-3.59-1.12a45.12,45.12,0,0,0-4.67,2.95c-7.42,5.23-14.84,10.46-22.8,15.24-13,8.78-26,17.55-40.89,23a52.66,52.66,0,0,1-9.14,2.91,12.15,12.15,0,0,1-11.27-3.32c-1.14-1.38-2.71-2.21-3.84-3.59-3.8-3.09-5.67-6.88-6.66-11.74-.75-2.41-1-4.87-1.74-7.28-1.93-9.24.17-17.91,5.81-25.93a58.65,58.65,0,0,1,4.82-6.45,110.47,110.47,0,0,1,25.58-26.95c3.19-2.81,6.44-5.13,9.09-8.38a35.06,35.06,0,0,1,8.25-6.8c6.92-5.17,14.34-10.4,23-13.76a1.53,1.53,0,0,0,.93-.59c2.41-.74,19.47-4,22-3.73,7,.29,11.86,4.27,15.91,9.82,1.18,1.86,2.46,4.72,3.7,7.07,1.13,1.38,1.82,3.3,2.95,4.67a2.2,2.2,0,0,0,3.05.69c.5-.05.94-.6,1.87-1.19,3.84-1.38,7.43-.25,8.32,3.63s1.68,6.78,4.89,8.94a3.82,3.82,0,0,1,1.23,2.36c1.18,1.87-.64,3.55-.44,5.51-.29,2,2.32,3.25,2.57,5.7a4.87,4.87,0,0,1-1.72,2.66c-5.94,5.08-7.16,12.66-10,19.4a2.22,2.22,0,0,0,.25,2.46,4.47,4.47,0,0,0,2.51.24c6.19-2.62,12.39-5.23,17.45-9.23,8.3-6.3,17.14-12.17,25.5-18l3.29-1.83c7.32-6.2,15.82-10.55,23.19-16.26a26.09,26.09,0,0,1,5.16-3c5.31-1.54,9.49-4.45,14.15-7.4a44.09,44.09,0,0,1,8-4.79,2.44,2.44,0,0,1,3.15,1.67,12.45,12.45,0,0,1-1.52,4.63,1.81,1.81,0,0,1,1.52.34C531.09,423.84,531.68,424.77,531.29,430.77ZM395,429.71c-2-.29-4-.58-6,.11-11.65,2.68-22.57,7.76-31.11,16.58-.44.54-.93.59-.88,1.08-2.41.74-4.23,2.42-6.05,4.09-5.89,5.57-11.84,10.65-17.19,16.66s-10.65,12.51-15.46,19a4.29,4.29,0,0,0-1.18,3.1c-.44.54.15,1.48.7,1.92.05.49,1,.39,1.52.34a3.79,3.79,0,0,0,2.36-1.23,41,41,0,0,1,10.42-5,56.35,56.35,0,0,0,11.69-7.15,10.92,10.92,0,0,1,3.69-2.86c9.29-6.41,18.57-12.82,28.4-18.78,4.62-3.45,9.24-6.9,13.81-10.85a39.25,39.25,0,0,0,8.24-11.77C399.28,432.26,398.09,430.4,395,429.71ZM519.48,427c-.49.05-.49.05-.93.59a.48.48,0,0,0-.44.54l.49-.05Z" fill="#2d2f30"/><path d="M740,421.49c2.3-1.73,5.06-4,8.94-4.88a13.36,13.36,0,0,1-1.72,2.65c-3.24,2.32-6.43,5.13-10.12,8-13.9,9.86-27.86,19.23-41.27,29-12,8.67-23.58,17.3-36.16,25.53-6.49,4.64-13.67,7.36-21.43,9.14-9.2,2.42-17.86.32-25-6.9-5.52-5.4-10.51-20.29-9.83-28.31a14.51,14.51,0,0,0,.53-4.53,8.43,8.43,0,0,0,.14-3.49,2.63,2.63,0,0,0-3.69-2.11c-.93.59-1.38,1.13-2.36,1.23-9.83,6-19.71,11.44-29.58,16.92a71.2,71.2,0,0,1-8.46,4.84c-5.16,3-11.45,4.64-17.25,6.22-8.71,2.38-15-1-20.13-7.39-3.4-4.13-5.33-8.41-7.3-13.18a35.88,35.88,0,0,1-1-10.32c1.61-8.61,4.25-16.83,9-24.27a20.21,20.21,0,0,1,6.29-6.6c2.36-1.23,4.32-1.43,6.49.33l1.62,1.33c5.22,2.45,5.67,6.88,3.66,11.55-2.45,5.22-1.9,10.63-2.33,16.14.2,2,1.33,3.34,3.84,3.59,3-.3,5.9-.6,8.21-2.33a45.37,45.37,0,0,0,6.54-4.14c8.84-5.87,18.77-10.85,28.2-15.79,2.8-1.77,5.66-3.06,8.41-5.32,7.76-6.75,16.06-13.06,24.36-19.37,4.18-2.91,7.37-5.72,9.33-10.89a8.83,8.83,0,0,1,3-4.28c3.73-2.37,8.75-1.89,10.67,2.39a11.69,11.69,0,0,0,6.06,5.84,5.68,5.68,0,0,1,3.06,5.66c-.73,2.56.35,3.44,2.91,4.17,1.58.84,1.88,3.79.55,5.41a48.13,48.13,0,0,1-7.46,9.7c-2.31,1.73-4.08,3.9-4.27,6.9a6.07,6.07,0,0,1-1.57,4.13c-3.28,6.8-5.53,14-8.28,21.22-1.56,4.13-2.59,8.71-6.27,11.56-.94.6-.3,2,.74,2.41a8.89,8.89,0,0,0,8,.19,78.57,78.57,0,0,1,10.81-6.07c7-4.19,14.55-8.43,20.44-14a10.2,10.2,0,0,1,2.75-2.27c9.78-6.46,18.47-13.8,28.25-20.26s19.46-13.9,30.42-18.49c1.91-.7,3.78-1.88,6.29-1.64,1.48-.15,2.51.24,2.66,1.72.59.93-.29,2-1.22,2.61M533.53,418.62c-.49.05-.44.54-.39,1,0-.5,0-.5.44-.55Zm83.11-8.44c0-.49-1-.39-1,.1m11.43,44.05c0,.49.54.44.49-.05l-.05-.49-.49,0Z" fill="#2d2f30"/><path d="M853.59,424.36c6.54-4.14,13.56-8.34,19.46-13.9.93-.6,1.92-.7,3.29-1.83a5.71,5.71,0,0,1-3,4.29,159.18,159.18,0,0,1-18.53,13.31,282.29,282.29,0,0,1-38.18,20.27c-6.64,3.16-13.22,6.81-20.35,10-8.55,3.85-17.16,7.21-25.76,10.57-4.81,1.48-10.17,2.52-15.19,2-8.56-1.12-15.9-4.84-21.12-12.26a105,105,0,0,0-6-10.32A19.58,19.58,0,0,1,726,434.84c.91-10.52,3.41-20.22,8.46-29.18a53.21,53.21,0,0,0,2.4-5.71,22.93,22.93,0,0,1,5.78-11.52,15.33,15.33,0,0,0,3.88-5.86c1.47-5.12,4.07-8.86,7.11-13.14,3.44-5.32,6.92-10.15,9.27-16.35l2.16-3.2c6.29-6.6,10.46-14.48,15.17-21.91,2.16-3.2,4.36-5.91,6-9.55a95.69,95.69,0,0,1,13.6-17.78c2.21-2.71,3.33-6.3,5.54-9,6.58-8.62,13.16-17.24,20.28-25.42,8.59-8.32,15-18.42,22.53-27.63l25.34-29.4c1.76-2.17,3.58-3.85,4.86-6l2.2-2.71c7.86-5.77,12.92-14.73,20.19-21.43L913,167.4c6.33-6.11,12.08-13.15,18.95-18.82a39.55,39.55,0,0,1,7.47-4.73,10.19,10.19,0,0,1,5.41-.55c1,.39,2.07.78,2.17,1.77a.94.94,0,0,1-.34,1.52c-.39,1-1.33,1.63-2.21,2.71a5,5,0,0,0-.34,1.53c.05.49,1.08.88,1.57.83,2,.29,3.49.14,5,.48a4,4,0,0,1,3.45,4.62,13.16,13.16,0,0,1-2.16,3.2,8.89,8.89,0,0,0-3.19,2.81c-7.71,7.24-14.88,14.93-22,22.61-2.7,2.76-5.45,5-7.66,7.74-1.82,1.67-3.15,3.3-3.39,5.81-.44.54-.88,1.08-.83,1.57l-2.8,1.78.49-.05-1.32,1.62c-2.86,1.29-5.07,4-7.28,6.71-3.14,3.3-6.72,7.14-9.81,10.93-4.92,5.47-9.88,10.44-13.7,16.8l.49,0-1.32,1.62c-.4,1-1.33,1.63-1.23,2.61.4,3.94-1.37,6.1-3.58,8.81-3,4.28-6.67,7.64-9.18,12.36l-1.32,1.63c-4.72,2.46-6.68,7.63-9.72,11.92a50.26,50.26,0,0,1-4.37,5.91c-5,5-10.41,10-14.73,16.4-4.76,6.94-9.57,13.39-14.38,19.84-6.92,10.15-13.89,19.8-19.82,29.84-2.51,4.73-5.6,8.52-8.64,12.81a181.79,181.79,0,0,0-12.81,20.68l-5.15,8a109,109,0,0,0-7.11,13.15c-2.06,4.18-4.66,7.92-6.72,12.11-.88,1.08-1.28,2.12.84,3.39l-.49,0c-3.58,3.84-5.54,9-7,14.62a1.83,1.83,0,0,1-.34,1.53c-.19,3,1.48,4.82,4.38,4a11,11,0,0,0,3.89-.89,130.45,130.45,0,0,0,19.07-7.9,67.07,67.07,0,0,1,16.17-7.11,41,41,0,0,0,10-4,47.45,47.45,0,0,1,14.25-6.41,57.77,57.77,0,0,0,20.4-9.53c5.55-4,12.14-7.69,18.67-11.84a9.93,9.93,0,0,1,4.33-1.43c1,.39,2,.29,3.1,1.18,1.13,1.37.2,2-.19,3l-2.16,3.2c-2.9.79-5.21,2.51-7.57,3.75M845,413.31a3.72,3.72,0,0,1,2.35-1.24Zm8.45-4.84.15,1.48c0-.49-.1-1-.59-.94Zm2.31-1.72.15,1.47-2.46.25A10.86,10.86,0,0,1,855.78,406.75Zm2.31-1.73,0,.49.1,1-2.46.25A10.3,10.3,0,0,1,858.09,405Z" fill="#2d2f30"/><path d="M1077.17,375.31c.1,1-.29,2,.3,2.95a6.07,6.07,0,0,1-1.57,4.13,18,18,0,0,0-4.57,3.94c-2.75,2.27-6,4.09-7.71,7.25a17.55,17.55,0,0,0-4.22,2.41c-16.61,12.62-33.8,24.31-51,36.48a176.57,176.57,0,0,1-33.81,19.34,42.26,42.26,0,0,1-11.17,2.62,13.37,13.37,0,0,1-8.75-3.08,23.45,23.45,0,0,1-11.64-16.71c-.3-2.95-.6-5.9-2.37-8.7-1.14-1.37-2.17-1.77-3.6-1.12a46.23,46.23,0,0,0-4.67,2.95C925,433,917.61,438.23,909.65,443c-13,8.78-26,17.55-40.89,23a52.5,52.5,0,0,1-9.15,2.91,12.16,12.16,0,0,1-11.27-3.32c-1.13-1.38-2.7-2.21-3.84-3.59-3.79-3.09-5.66-6.88-6.66-11.74-.74-2.41-1-4.87-1.73-7.28-1.93-9.24.17-17.91,5.81-25.93a58.51,58.51,0,0,1,4.81-6.45,110.51,110.51,0,0,1,25.59-26.95c3.19-2.81,6.43-5.13,9.08-8.38a34.91,34.91,0,0,1,8.26-6.8c6.92-5.17,14.34-10.4,22.94-13.76a1.53,1.53,0,0,0,.94-.59c2.41-.74,19.47-4,22-3.72,7,.28,11.86,4.26,15.9,9.81,1.19,1.86,2.47,4.72,3.7,7.08,1.14,1.37,1.83,3.29,3,4.66a2.2,2.2,0,0,0,3,.69c.49-.05.94-.59,1.87-1.19,3.83-1.38,7.42-.25,8.32,3.63s1.68,6.79,4.88,8.94a3.82,3.82,0,0,1,1.24,2.36c1.18,1.87-.64,3.55-.44,5.51-.29,2,2.32,3.25,2.57,5.71a4.88,4.88,0,0,1-1.72,2.65c-5.94,5.08-7.16,12.66-10,19.4a2.18,2.18,0,0,0,.25,2.46,4.47,4.47,0,0,0,2.51.24c6.19-2.62,12.38-5.23,17.44-9.22,8.3-6.31,17.15-12.18,25.5-18l3.3-1.82c7.31-6.21,15.82-10.56,23.19-16.27a25.81,25.81,0,0,1,5.16-3c5.3-1.54,9.48-4.44,14.15-7.4a44,44,0,0,1,8-4.79,2.44,2.44,0,0,1,3.15,1.67,12.1,12.1,0,0,1-1.52,4.63,1.82,1.82,0,0,1,1.53.34C1077,368.37,1077.56,369.3,1077.17,375.31Zm-136.25-1.07c-2-.29-4-.58-5.95.11-11.66,2.68-22.57,7.76-31.11,16.58-.45.54-.94.59-.89,1.08-2.41.74-4.22,2.42-6,4.1-5.9,5.56-11.84,10.64-17.19,16.65s-10.65,12.51-15.46,19a4.25,4.25,0,0,0-1.18,3.1c-.44.54.15,1.48.69,1.92.05.49,1,.39,1.53.34a3.82,3.82,0,0,0,2.36-1.23,40.86,40.86,0,0,1,10.42-5,56.61,56.61,0,0,0,11.69-7.15,10.85,10.85,0,0,1,3.69-2.86c9.28-6.41,18.57-12.82,28.4-18.78,4.61-3.45,9.23-6.9,13.8-10.85a39.1,39.1,0,0,0,8.25-11.77C945.15,376.8,944,374.93,940.92,374.24Z" fill="#2d2f30"/><path d="M1309.45,140.61a21,21,0,0,1-4.44,6.85,617.69,617.69,0,0,0-48.2,73.45c-9.55,16.26-19.1,32.52-26.81,50.86-4.08,8.83-8.61,17-12.69,25.8a47.84,47.84,0,0,1-4,6.89c-1.57,8.35-5,14.62-7.93,21.57a184.66,184.66,0,0,0-9.06,23.45c-.72,3.21-2.47,7-3.68,10.16A244.5,244.5,0,0,0,1182,392.09c-2.11,9-4.66,17.25-7.26,26.18a35.31,35.31,0,0,1-2.92,6.31,8.82,8.82,0,0,0-.85,5.14,7.66,7.66,0,0,1-2.46,7c-1.08,1.23-1.66,2.49-1.26,3.82,2,6.65.09,13-1.84,19.4l-.09,1.29c.36,2-.27,3.89-.9,5.8-1.16,2.52-2.28,4.39-2.46,7-1.21,10.33-1.93,20.69-.63,30.55.22,3.92.94,7.87,3.22,10.63l-.49,0,1.26,3.34c2.19,4.06,5.6,4.94,9.14,3.89a71.66,71.66,0,0,0,15.83-6.72c5.2-3.54,9.91-7.12,15.06-10,4.17-3,8.3-5.28,11.12-10.29,0-.65,1.08-1.23,1.57-1.19,6.77-4.74,11.7-11.56,18-17a21.41,21.41,0,0,0,5.29-4.84c4.26-4.26,8.56-9.16,13.27-12.74,1.52-.55,2.64-2.42,3.72-3.65,5.83-5.45,11.66-10.91,17.53-17,3.72-3.64,8-7.9,11.74-12.2a159.13,159.13,0,0,1,13.36-14,68.12,68.12,0,0,0,5.43-6.78,42.4,42.4,0,0,1,9.64-10.4,34.68,34.68,0,0,0,6.41-6.71c6-8.05,12.51-16.06,19.86-22.06a47.8,47.8,0,0,0,7-8,73,73,0,0,1,10.26-12.31,45.79,45.79,0,0,0,9.69-11,21.42,21.42,0,0,1,5.29-4.84c1.57-1.19,3.94.27,3.77,2.87a23.51,23.51,0,0,1-.9,5.79,20.7,20.7,0,0,0-4,6.89,12.29,12.29,0,0,0,4-6.89,19.68,19.68,0,0,1,6-.89c3,.21,4.26,2.9,3.54,6.11a16.19,16.19,0,0,1-4.58,8.79c-6.9,6.68-12.27,19.3-18.19,26.05-9.15,10.43-17.52,20.12-26.62,29.9-16.59,17.72-32.24,36.29-49.33,54-20.35,22-36.66,39.24-58.81,58.53-5.24,4.2-16.55,12.68-21.71,15.63-1.07,1.22-5.94,9.22-5.35,4.79l1.26-4.73c.4,1.33.89,1.37,1.43.75,2-.51.6-10.44,2.66-11.6,4.17-3,11.63-4.8,15.84-8.41,10.49-8.38,20.19-9.19,29.25-18.33,15.42-15.2,26.23-35.29,41.16-50.52,12.33-13.47,23.68-25.86,40.17-36.26l26.32-29.41c5.92-6.75,12.42-14.76,18.38-22.15,2.69-3.07,4.84-5.53,8.48-7.88-.68,2.56-2.83,5-5,7.47-4.93,6.81-9.82,13-15.2,19.12l-54.79,61.28c-17.24,19.66-35.34,37.91-53.44,56.17-12.78,12.78-26,25.53-39.72,37a90.41,90.41,0,0,1-24.3,14.58c-13.28,5.59-31.12-1.5-38.74-13.09-3.58-5.46-7.22-10.26-10.26-16.33-3.5-6.75-5-14-5.38-22.5a141.06,141.06,0,0,1,.67-38.35,10.64,10.64,0,0,0,.76-3.85c.9-20.11,6.64-38.59,11.44-57.78l6.19-24.95a83.71,83.71,0,0,1,4.17-10.12,83.69,83.69,0,0,0,5.55-15.89c2.7-10.23,5.88-20.42,11.39-28.5a32.65,32.65,0,0,0,2.43-6.34c5.06-15.91,12-30.4,19-44.89a15.19,15.19,0,0,0,2.83-5c4.44-14,12.15-25.19,18.42-37.12,2.87-5.65,6.19-10.63,9.06-16.29,3.32-5,6.64-9.95,8.56-16.33l2.25-3.75c5-8.11,10-15.57,15-23.68,2.73-3.72,5-7.47,7.21-11.22l3.28-4.33c7-7.33,12-16.08,17.57-24.81a40.5,40.5,0,0,1,4.35-5.56c7.53-8.59,15-16.53,21.61-25.83,6-7.4,12.38-14.11,18.79-20.83l6.32-5.42a66,66,0,0,0,9.55-9.1c1.12-1.87,2.74-3.71,4.26-4.26,6.81-5.38,13.14-10.8,20-16.83,1.07-1.23,2.6-1.78,4.16-3s3.1-1.74,4.17-3c3.23-3.69,7.4-6.65,11.88-7l3.1-1.74c4.26-4.26,9.37-6.51,14.48-8.76l1.57-1.19c8.83-5.9,17.89-7.87,27-10.49,6.54-1.5,13.49-1.67,19.77.71,5.78,2.36,9.91,7.2,12.42,13.88,7.17,18.07,9.28,37.74,3.94,57.54l-2,7.67a23.29,23.29,0,0,1-2.91,6.31,39.11,39.11,0,0,0-6.15,10l-16.81,35.28c-1.75,3.79-3.54,8.22-5.29,12-2.11,1.81-3.81,4.94-5.51,8.08-9.06,16.29-19,31.22-28.52,46.83a186.42,186.42,0,0,1-14.84,21.1l-1.7,3.14c-1.08,1.22-2.16,2.45-3.54,1.05a3.18,3.18,0,0,1-1.22-4c.18-2.59.86-5.14,1.08-8.38l.14-1.95c1.84-5.07,3.67-10.15,6-15.2,9.11-16.94,18.25-34.53,27.89-52.08,13.54-23.79,25.2-49,35.92-75,2.33-5,3.67-10.16,5.51-15.24.63-1.91.76-3.85,1.39-5.76.81-4.5,0-7.16-3.31-9.34-8.12-4.47-16-5.66-24.62-2.36a158.14,158.14,0,0,0-23.49,10.09c-8.34,5.93-16.63,11.21-25,17.79-13.05,9.51-25.24,21-37.44,32.55-2.15,2.45-3.76,4.29-6.86,6,1.75-3.78,4.4-6.2,6.55-8.66,5.29-4.84,10.09-9.71,14.89-14.59,2.15-2.45,5.19-15.38,6.41-18.55,6.09-2.18,9.86,5.37,14.21-.19-6.05,1.53-11.7,4.4-15.65,11.28-1.52.55,23.14-22.25,21.57-21.06.71,7.84-36.09,37.63-41.12,45.74-.58,1.26-9.5,8.45-10,9.06-4.66,2.93-1-6.58,0,0a52.21,52.21,0,0,1-9.28,12.38l-14.57,17.21c-2.15,2.45-3.81,4.94-5.87,6.1m-8.93,7.19-.49,0,0,.64C1300,147.77,1300,147.77,1300.52,147.8Zm40.27-44.72,1.56-1.19C1341.82,102.5,1341.28,103.12,1340.79,103.08Zm1.07-1.22.49,0Zm46,251.13s-.49,0-.53.61l0-.65Z" fill="#2d2f30"/><path d="M1668.17,315.25c.1,1-.29,2,.3,2.95a6.09,6.09,0,0,1-1.57,4.14,17.79,17.79,0,0,0-4.57,3.94c-2.75,2.27-6,4.09-7.7,7.24a17.46,17.46,0,0,0-4.23,2.42c-16.61,12.62-33.8,24.3-51,36.48a177.63,177.63,0,0,1-33.81,19.34,42.28,42.28,0,0,1-11.16,2.62,13.43,13.43,0,0,1-8.76-3.08,23.45,23.45,0,0,1-11.64-16.71c-.3-2.95-.6-5.9-2.37-8.7-1.14-1.38-2.17-1.77-3.6-1.13a46.18,46.18,0,0,0-4.67,3c-7.41,5.23-14.83,10.45-22.79,15.24-13,8.77-26,17.55-40.89,23a51.67,51.67,0,0,1-9.15,2.92,12.17,12.17,0,0,1-11.27-3.33c-1.13-1.37-2.7-2.21-3.84-3.58-3.79-3.1-5.66-6.88-6.66-11.75-.74-2.41-1-4.87-1.73-7.27-1.93-9.25.17-17.91,5.81-25.94a60.46,60.46,0,0,1,4.81-6.45,110.65,110.65,0,0,1,25.59-26.94c3.19-2.81,6.43-5.13,9.08-8.38a34.67,34.67,0,0,1,8.26-6.8c6.92-5.18,14.34-10.4,22.94-13.76a1.53,1.53,0,0,0,.94-.59c2.41-.75,19.47-4,22-3.73,7,.29,11.86,4.26,15.9,9.81,1.19,1.87,2.47,4.72,3.7,7.08,1.14,1.38,1.83,3.29,3,4.67a2.2,2.2,0,0,0,3.05.68c.49-.05.94-.59,1.87-1.18,3.84-1.38,7.42-.26,8.32,3.63s1.68,6.78,4.88,8.94a3.8,3.8,0,0,1,1.24,2.36c1.18,1.87-.64,3.54-.44,5.51-.29,2,2.32,3.24,2.57,5.7a4.9,4.9,0,0,1-1.72,2.66c-5.94,5.08-7.16,12.65-9.95,19.4a2.18,2.18,0,0,0,.25,2.45,4.39,4.39,0,0,0,2.51.25c6.19-2.62,12.38-5.24,17.44-9.23,8.3-6.31,17.15-12.18,25.5-18l3.3-1.83c7.31-6.21,15.82-10.55,23.19-16.27a26.3,26.3,0,0,1,5.16-3c5.31-1.53,9.48-4.44,14.15-7.4a44,44,0,0,1,8-4.78,2.43,2.43,0,0,1,3.15,1.67,12.05,12.05,0,0,1-1.52,4.62,1.82,1.82,0,0,1,1.53.34C1668,308.32,1668.56,309.25,1668.17,315.25Zm-136.25-1.06c-2-.29-4-.58-6,.11-11.66,2.67-22.57,7.76-31.11,16.57-.45.55-.94.6-.89,1.09-2.41.74-4.22,2.42-6,4.09-5.9,5.57-11.84,10.64-17.19,16.65s-10.65,12.51-15.46,19a4.24,4.24,0,0,0-1.18,3.1c-.44.54.15,1.47.69,1.91,0,.5,1,.4,1.53.35a3.82,3.82,0,0,0,2.36-1.24,40.83,40.83,0,0,1,10.42-5,57,57,0,0,0,11.69-7.15,10.71,10.71,0,0,1,3.69-2.86c9.28-6.41,18.57-12.82,28.4-18.79,4.62-3.45,9.23-6.9,13.8-10.84a39.23,39.23,0,0,0,8.25-11.77C1536.15,316.74,1535,314.87,1531.92,314.19Zm124.44-2.71c-.49,0-.49,0-.93.59a.49.49,0,0,0-.45.55l.5-.05Z" fill="#2d2f30"/><path d="M1860.25,318.09c1.43,4.33-2,5.17-4.76,7A302.66,302.66,0,0,1,1827,338.36c-28,12.79-56.73,23.65-85.54,33.54a277.68,277.68,0,0,1-48.43,12.37l-9.34,1a108,108,0,0,0-17.81.82,52,52,0,0,1-15.44-.42c-9.6-1.51-18.36-9.56-20.3-18.81a101.44,101.44,0,0,1-1.75-17.21,31.52,31.52,0,0,1,2-9.15,63.65,63.65,0,0,1,7.75-16.69c4.76-6.94,9.57-13.39,14.38-19.85,5.79-6.55,11.14-12.56,19.26-15.87a21.56,21.56,0,0,0,3.24-2.31c5-5,11.25-6.61,17.05-8.2l10.82-1.09c5.41-.55,10,1,14.72,3a11.73,11.73,0,0,1,6,5.85c3,5.16,5.58,10.86,6.18,16.76.94,4.38.31,7.92-2.34,11.17-1.67,3.15-3.83,6.35-5,9.45A10.25,10.25,0,0,1,1719,327c-3.24,2.31-6.89.7-8.22-2.65a16.63,16.63,0,0,1,.87-11l2.45-5.21c1.62-3.65.44-5.51-2.61-6.2a37.8,37.8,0,0,0-10.48-.42c-5.8,1.58-11.07,3.6-16.13,7.6-3.68,2.86-7.36,5.71-10.46,9.51-8.44,9.8-16.89,19.6-22.67,31.12-3,5.27-2.6,8.71,4.34,8.5,8,.68,15.84-.61,26.21-1.17,8.91-.41,19.63-2.49,30.74-5.61,8.21-2.32,16.37-5.14,24.53-8,9.15-2.91,17.75-6.27,26.89-9.19,12.54-3.76,23.94-8.89,35.94-13.09a45,45,0,0,0,9.93-5c.93-.6,2.3-1.73,3.29-1.83l32.54-12.25a33.53,33.53,0,0,1,6.79-1.68c2.41-.75,6.1,1.36,4.92,4.46-.24,2.51.94,4.38,2.62,6.2,1.62,1.32,1.82,3.29.55,5.41C1860.64,317.06,1859.7,317.65,1860.25,318.09Z" fill="#2d2f30"/><path d="M1877.13,332.77a9.86,9.86,0,0,0,4.14,1.57c6.1,1.37,12,1.26,18.44.61,8.31-1.34,17.07-3.22,25.33-5.06a134.16,134.16,0,0,0,23.45-8.84l1.47-.15c13.42-4.84,26.1-12.09,38.83-18.85l22.22-11.2c4.76-2,9.48-4.44,14.2-6.91l4.28-1.93c3.34-1.33,5.46-.05,5.81,3.39.25,2.46,1.38,3.83,3.06,5.65,2.16,1.77,2.9,4.18,1.14,6.34-.84,1.58-.74,2.56.35,3.45.59.93.69,1.91,1.28,2.85a7,7,0,0,1-2.85,1.28c-2.46.25-4.28,1.93-6.15,3.11a451.24,451.24,0,0,1-42.21,24.66c-17.5,8.74-35,17.47-53.77,23.35-11.61,3.17-23.21,6.34-35.56,7.09-10.37.56-19.52-1.49-28.14-8.07-6.5-5.3-10.7-12.33-13.07-21-1-5.36-1.64-11.26-2.19-16.67-1.25-12.3,2.12-23.07,8.55-33.17,5.15-8,11.88-15.12,18.17-21.72s14-8.87,22.31-10.22c5.9-.59,11.07,1.36,14.52,6,5.18,6.93,9.42,14.45,10.86,23.74a17.21,17.21,0,0,1-3.47,14.76c-2.6,3.75-5.25,7-6.77,11.62a12.74,12.74,0,0,1-4.91,5.47,177.76,177.76,0,0,1-28.7,15.84,16.82,16.82,0,0,1-4.86,1m5.45-34.34c.3,2.95,1.38,3.83,3.3,3.14A41.79,41.79,0,0,0,1902,294c3.69-2.86,6.29-6.6,8.84-10.83a4.23,4.23,0,0,0-.35-3.44,2.32,2.32,0,0,0-3-.2c-4.38.95-7.57,3.75-10.32,6-2.31,1.73-3.59,3.84-6,5.08C1888.92,292.32,1887.6,294,1888.34,296.36Zm152.94,8.8c-1,.1-2-.29-3-.19A6.29,6.29,0,0,1,2041.28,305.16Z" fill="#2d2f30"/><path d="M2214.75,296c3.4-.84,6.74-2.17,10.13-3l1-.1c.05.49.1,1-.39,1L2224.1,295a24.91,24.91,0,0,1-5.8,1.59c-22.77,5.79-46.12,10.65-69.24,13a156.92,156.92,0,0,1-30.79.15,47.08,47.08,0,0,1-24.41-10.44c-4.88-4-7.84-8.64-10-14.88-1.64-6.3-4.2-7-8.66-2.11l-6.78,6.66-1.33,1.62.5-.05,1-.1c-.45.54-.88,1.08-1.33,1.63a70.85,70.85,0,0,0-10.07,8.47,9.84,9.84,0,0,1-3.73,2.37l-2.65,3.25a6,6,0,0,1-2.21,2.71l-1.48.15a10.78,10.78,0,0,0-2.06,4.18c-.19,3-2.55,4.24-3.82,6.35a4.28,4.28,0,0,1-2.8,1.78c-2-.29-3.4.84-3.2,2.81a12.84,12.84,0,0,1-2.89,5.76c-4.71,7.43-11,14-16.79,20.59-1.28,2.11-6.29,1.63-7.58-1.22-1.13-1.38-1.77-2.8-3.84-3.59a3.46,3.46,0,0,1-2.42-4.22c-.35-3.44-.25-7.43-2.08-10.72-.74-2.41.49-5,1.27-7.09,5.68-12.5,11.42-24.51,17.16-36.52a110,110,0,0,1,5.39-10.49c1.72-2.66,4.67-3,6.49.34.6.93.75,2.4,1.34,3.34,1.72,2.31,3.79,3.09,6.1,1.37,1.42-.65,2.31-1.73,3.68-2.86,4-4.39,8.06-8.77,12.13-12.66,5.85-6.06,11.64-12.61,19.16-16.86,1.92-.69,3.78-1.87,6.19-2.61,3.35-1.34,6.4-.65,8.22,2.64,4.14,6.54,8.24,12.58,9.53,20.4a9.71,9.71,0,0,0,.84,3.39,5.77,5.77,0,0,0,4.48,5,10.3,10.3,0,0,1,2.61,1.23c11.66,2.29,23.27,4.09,35.08,2.89,4.42-.45,8.9-.41,13.32-.86a18.42,18.42,0,0,0,7.38-.75c4.87-1,10.28-1.54,15.2-2,12.84-.8,25.37-4.56,38.21-5.37,2.46-.25,5.31-1.53,8.21-2.33l4.43-.45a2.48,2.48,0,0,1,1.43,4.33c-1.38,1.13-2.75,2.27-4.72,2.47-1.42.64-2.9.79-4.32,1.43a1.72,1.72,0,0,0-.94.59,1.31,1.31,0,0,0,1.63,1.33,18.54,18.54,0,0,1,5.36-1c3.83-1.39,6,.38,6.74,2.79s-1,4.58-3.83,6.35c-1.42.64-2.9.79-4.32,1.43m-71.35,16.7,49.6-20.45a1.81,1.81,0,0,0-1.52-.34,3,3,0,0,0-1.92.69Z" fill="#2d2f30"/><path d="M2224.89,293.46m-10,5a12.64,12.64,0,0,0,4.84,1.49c7.17,1.26,14.18,1.05,21.73.28,9.82-1.49,20.16-3.54,29.93-5.53a181.24,181.24,0,0,0,27.79-9.28l1.75-.18c15.9-5.09,31-12.58,46.09-19.59L2373.35,254c5.66-2.07,11.26-4.62,16.87-7.18l5.07-2c4-1.39,6.44-.15,6.79,3.29.24,2.46,1.55,3.82,3.5,5.61,2.52,1.73,3.35,4.13,1.23,6.33-1,1.59-.92,2.58.35,3.44.68.93.78,1.91,1.45,2.84a9.29,9.29,0,0,1-3.38,1.33c-2.9.3-5.07,2-7.29,3.23-16.08,9.09-32.8,17.74-50.19,25.47-20.78,9.07-41.56,18.14-63.79,24.37-13.73,3.38-27.46,6.77-42,7.75-12.23.75-23-1.14-33-7.58a37.58,37.58,0,0,1-15-20.83,164.6,164.6,0,0,1-2.27-16.66c-1.25-12.3,2.92-23.16,10.68-33.39,6.21-8.08,14.27-15.36,21.79-22.09s16.67-9.14,26.49-10.64c7-.7,13,1.16,17,5.73,6,6.84,10.83,14.3,12.36,23.59a15.74,15.74,0,0,1-4.35,14.85c-3.13,3.79-6.31,7.1-8.19,11.76a14.53,14.53,0,0,1-5.88,5.57,232.13,232.13,0,0,1-34.11,16.38,22.88,22.88,0,0,1-5.75,1.08c-.59.06-1.75.18-1.85-.8m8.89-33.7c.3,3,1.57,3.82,3.84,3.09a55.28,55.28,0,0,0,12.32-5.72c4.39-2.94,7.52-6.73,10.61-11a3.64,3.64,0,0,0-.35-3.44,3.11,3.11,0,0,0-3.54-.14c-5.17,1-9,3.89-12.27,6.21-2.75,1.77-4.29,3.92-7.09,5.2C2229.47,257.72,2227.87,259.37,2228.7,261.77Zm30.72,13.77,149.34-7.72c-1.15.12-2.37-.25-3.53-.14A8.79,8.79,0,0,1,2408.76,267.82Z" fill="#2d2f30"/><path d="M2382.94,352.1c-.33,1.66-1.86,3.41-3,5a157.89,157.89,0,0,1-20.07,21.95,94.35,94.35,0,0,1-13.4,9.87,11.61,11.61,0,0,1-7.95,2,12.57,12.57,0,0,0-2.9-.2c-4,.13-6.76-.9-9-2.87l-5.05-4.78a11.75,11.75,0,0,1-2.51-4.48,24.73,24.73,0,0,1,1.8-14.84c1.25-2.7,2.42-5.65,3.6-8.59,1.52-4.6,4.36-8.81,7.52-13.37a25.92,25.92,0,0,0,1.93-3.16c4.26-7.74,11.12-14.94,18.35-22.24.31-.35.68-.46.61-.7,4.61-6.54,13.15-12.14,18.14-18.79.61-.69,1.66-1.26,2.28-2l5.84-5.07c5.55-4.73,11-9.7,17.07-14.06,4.32-3.33,7.07-6.47,8.42-10.25l-.46-28.24a9.31,9.31,0,0,1,7.4-1.1c3.63,1.29,7.56,2.24,10.2,4.33a11.78,11.78,0,0,1,4.23,4.77l.07.24a5.1,5.1,0,0,1,1.32,4.56l.37-.11,1.13-.32c-.38.1-.68.45-1.06.56l-.37.11c.14.48-.17.83,0,1.31-.09,1.07-.57,2.25.84,2.88,2.15.42,3.37-1,4.8-1.65a41.65,41.65,0,0,1,5-2.24,63.31,63.31,0,0,0,9.27-4.51,167.6,167.6,0,0,1,20.85-9.42,26.87,26.87,0,0,0,5.79-2.46c9-4.16,18.64-7.22,28.25-10.53a47.68,47.68,0,0,1,5.63-1.63c3.89-.6,6.79-.4,8.61,1.67a4.78,4.78,0,0,0,2.06,1.49,4.46,4.46,0,0,1,3,4.85c0,1.55-.57,2.24-2.89,2.66a8.21,8.21,0,0,1-2.39.17c-3.21.15-6.51,1.36-9.44,2.47-8.12,2.87-15.27,6.25-22.8,9.73-3.61,1.57-7.53,3.48-11.51,5.16-10.16,4.24-20.1,9.2-30.05,14.17-6,3-11.91,6.57-17.8,10.1a38.82,38.82,0,0,0-3.95,3.23c.52.37.59.61.35,1.2a15.9,15.9,0,0,1-3.26,2.76,8.24,8.24,0,0,0-4,4.3c-2,4.47-3.85,9.18-5.43,13.54a8.68,8.68,0,0,0-.8,2.84m-7.4,15.16a7.34,7.34,0,0,0-.74,3.07c-.3.35-1,.81-1.22,1.4-2.57,5.17-6.7,10.53-7.12,16.12-.24,1.32-.83,1.62-.83,2.85a14.82,14.82,0,0,0-2,2.91c-.81,2.83-3.7,5.49-5.39,8.06-1.26-.15-2,.07-2.55,1m-42.79,13.7c-2.82,2.9-2.43,5.65-3.23,8.48-.1,1.07.35,1.21,1.91,1a12.75,12.75,0,0,0,7.53-3.48l1.91-1.85c4.86-4.28,8.83-8.81,13.24-13.21a40.44,40.44,0,0,0,4.52-5.47c1.86-3.41,4.54-6.79,6.47-9.95a39.7,39.7,0,0,0,3.92-6.08,175.18,175.18,0,0,0,9.29-19.87c1.79-3.64,4.47-7,3.8-10.73-.07-.24.31-.35.62-.7-.07-.24.16-.83-.66-.85a2,2,0,0,0-1.06.56c-3.19,3-6.45,5.78-9.58,9m-36.07,49.49-.38.11-1.31,2.46m6.37-15.9" fill="#2d2f30"/></svg>