<svg id="Layer_1" data-name="Layer 1" xmlns="http://www.w3.org/2000/svg" viewBox="0 0 732.77 659.72"><title>Logo-iniciales-negro</title><path d="M477.73,130a157,157,0,0,1-6.94,32c-.93,5.19-2.58,10.46-3.51,15.65-1.58,6-4.67,11.4-7.11,16-2.37,5.33-5.54,10-8.63,15.44-1.87,3.1-2.3,6.06-2.58,10.46-1.51-.58-2.16.22-1.94,2.38l-.08-.72c-1.94,2.38-4.6,4.84-6.47,7.94-8.27,11.76-16.47,24.25-24,36.66-1.3,1.59-1.8,3.83-2.37,5.34-4,3.32-6.55,7.22-9,11.84-5.11,7.07-10.94,14.22-16.77,21.37-11.08,12.78-22.09,26.28-33.1,39.78L331,370.67c-1.94,2.39-4,3.33-4.45,6.28-1.08,3.75-3.82,5.49-6.55,7.22a13.48,13.48,0,0,0-8.14,5.93c-1.94,2.38-.36,3.68,1.88,4.18-4,3.32-7.35,6.57-13,7.88-2.88.29-5.54,2.75-4.46,6.28.94,2.09-1.15,3-2.44,4.62-2.67,2.45-6.12,4.26-9.58,6.07l1.72-4.55a6.27,6.27,0,0,0-1.72,4.55,36.45,36.45,0,0,1-5.25,5.63c-8.72,7.44-17.43,14.88-26.93,21.67-6.85,4.34-13.62,9.4-20.38,14.45s-14.34,9.47-22.84,11.79l7.27-7.29-.15-1.44a2.24,2.24,0,0,0-1.51-.58c-5.05.52-9.08,3.84-13.26,5.72C182,480.5,161,489.19,138,492.25c-2.89.29-5.69,1.31-8.58,1.6a1.55,1.55,0,0,0-1.29,1.59c-.65.79.87,1.37,1.58,1.29,8.88,1.29,16.73-.24,24.51-2.49,14.27-2.9,26.74-9.27,39.27-14.91,4.83-2.68,10.38-5.42,16.07-6.73-10.73,9.1-23.26,14.74-35.95,18.95-12,4.12-24.79,6.89-36.82,10.29a27.5,27.5,0,0,1-10.82,1.1c-7.35-.71-12.9,2-17.5,6.88-1.94,2.38-4,3.32-5.18,6.35.07.72.86,1.37,2.3,1.22l-.72.08c-1,4.47-3.66,6.92-6.32,9.38-1.3,1.59-1.23,2.31-.36,3.68l-6.47,7.94c-1.3,1.58-1.8,3.82-3.1,5.41-3.24,4-1.21,9.59-5.89,13.71-4.1,2.6-5.75,7.87-7.47,12.41a109.14,109.14,0,0,0-8.77,21.28c-.57,1.52-1.07,3.75-1.72,4.55-7.05,9.45-9.48,21.35-15,31.39-4.38,7-6.54,14.5-8.61,22.72-1.3,1.59-1.8,3.82-2.38,5.34-2.37,5.34-8.86,6-12.25,1.24-4.48-8.28-8.17-15.92-4.08-25.8,5.75-15.15,12.36-28.93,18.89-43.43l12.28-29.66c3-6.13,6.69-13.06,10.43-19.26,5.31-12.2,9.91-24.32,17.46-36,.58-1.51,1.22-2.31,1.08-3.75,1.87-3.1.78-6.63-1.68-9.3-2.31-1.22-4-3.23-6.35-5.18C69.86,481,66.39,475.49,63,470.74a26.47,26.47,0,0,1-3.26-10.59c.35-3.68,3-6.14,6.77-5.06a166.66,166.66,0,0,1,17.32,5.53l4.54,1.72c7.5,2.15,11.1,1.78,15.49-5.22a104.09,104.09,0,0,0,9.78-18.47c3.52-8.37,7.11-16,12.86-23.89a15.6,15.6,0,0,0,3-6.13c5.32-12.19,12.87-23.88,18.91-36.15,2.51-3.89,5-8.51,7.4-13.13,4.32-7.72,7.83-16.09,13.66-23.24a15.74,15.74,0,0,0,3-6.13c5.24-12.92,13.44-25.4,20.92-37.82,11.72-20.85,27.26-39.91,38.91-61.48,10.49-18.55,23.37-35.15,35.38-53.13a327.34,327.34,0,0,1,23-31.47c4.46-6.28,10.44-12,16.49-17l2.16-.22c1.52.58.87,1.37.29,2.89l.08.72c-.58,1.51.22,2.16,1.73,2.73,1.44-.14,2.09-.93,2.81-1,3.68.36,5.41,3.09,5.06,6.77-.65.8-.65.8-.58,1.52-5.68,8.59-8.33,18.32-15.53,26.34-3.23,4-6.4,8.66-9.57,13.35-7.47,12.41-15.75,24.18-24,35.94-3.09,5.41-5.39,11.47-9.2,17-5.68,8.59-11.29,17.9-16.18,27.14l-13.16,21c-1.15,3-3.09,5.41-2,8.94-1.87,3.1-3.67,6.93-7.05,9.46a7.38,7.38,0,0,0-3.17,4.69,16,16,0,0,1-1.79,3.82c-6,5-9,11.84-9.71,19.2a23.67,23.67,0,0,1-8,14.64c-6,5.71-9.71,11.91-13.38,18.84L182.29,369l2.17-.22-2,2.38a15.56,15.56,0,0,1-6.1,11.55c-2.1.94-3.31,3.25-3.82,5.48l-1.94,2.38,2.16-.22a58.46,58.46,0,0,1-10.49,18.55l.79.65a4,4,0,0,0-1.79,3.82l-.44-4.32-.65.79c-.58,1.51-1.23,2.31,1.09,3.53-2,1.66-2.6,3.18-4.61,4.84-3.39,2.53-5.26,5.63-5.47,10.75s-4.09,9.89-8.12,13.21a38.71,38.71,0,0,0-9.71,11.91c.07.72-.43,3,.29,2.88,1.59,1.3,2.16-.22,3.53-1.09,2.67,4.83,6.43,5.91,11.4,4.67a73.19,73.19,0,0,0,23.85-9c10.37-5.43,20-10.78,29.61-16.85a328.2,328.2,0,0,0,43.49-30.64c4.68-4.12,10.15-7.59,15.56-11.78a71.74,71.74,0,0,0,11.44-9.17c13.25-13,26.49-26,39-38.92,15.18-15.39,28.86-31.34,42.46-48,1.37-.86,1.94-2.38,2.59-3.17,17.35-15.61,27.63-36.31,41.8-54.5a595,595,0,0,0,41.06-69c5.39-11.48,10.78-22.95,15.37-35.07,9.12-25,3.32-46.22-15.24-64A71.69,71.69,0,0,0,416.9,54.61C402.4,48.07,388,42.25,372.47,40.19a162.45,162.45,0,0,0-32.23-1.83,414.6,414.6,0,0,0-78,13.75A519.4,519.4,0,0,0,185.16,81.8c-6.92,3.61-13.91,6.51-20.9,9.4l1.8-3.82c-3.54,1.09-6.27,2.82-9.73,4.63l7.93-.81c-2.59,3.18-6.77,5.06-10.15,7.59-11,6.22-22,13.16-32.2,20-6.12,4.27-12.89,9.32-19.81,12.94q-3.66,6.93-12.09,10c-3.46,1.8-6.12,4.26-9.51,6.79-12.89,9.32-21.73,22.6-32.17,34.59-3.24,4-7.84,8.81-7.91,15.37l-1.94,2.38a82.33,82.33,0,0,0-15.17,29.94c-1,4.47-2,9-1.49,14s.31,10.17.75,14.49c.3,10.17,4.72,17.73,12.51,22.77,5.41,3.09,10.82,6.18,16.16,8.55,8.3,2.8,17.31,5.52,25.53,7.6,3,.43,4.48,1,4.85,4.61.14,1.44,2.38,1.94,3.89,2.52L90.06,307c1.58,1.29,1.8,3.46.44,4.32-1.3,1.59-3.39,2.53-4.76,3.4-.65.79.15,1.44.94,2.09,2.24.5,2.38,1.94.3,2.88-2.17.22-5,1.24-7.21.73-11.54,1.18-22.07-2.12-32-6.94-12.27-6-23.31-14.38-31.77-25.9-2.53-3.39-5.06-6.77-6.22-11C-.66,252.89-3.94,227.74,5.9,202.7c2.22-6.78,6-13,8.9-19.84,8.63-15.44,20.29-29.73,31.23-44a8.71,8.71,0,0,1,3.23-4c12.17-9.24,21.81-21.88,34-31.12,9.44-7.52,18.79-15.75,29.89-21.25C121.49,78.8,128.9,73,136.32,67.1a157.55,157.55,0,0,1,29-15.34c5.55-2.74,11.81-5.57,16.57-9,6.77-5.06,14.55-7.31,22.33-9.55,8.51-2.32,17-4.65,25.3-9.13,4.82-2.67,10.51-4,16.21-5.29,8.5-2.32,16.93-5.36,25.37-8.4a219.15,219.15,0,0,1,37.18-6.69,47.83,47.83,0,0,0,10-1.75c8.58-1.6,18-1.83,26.75-2,13.84.05,26.39,1.69,39.66,3.25,2.23.5,5.12.21,7.42,1.43C405,9.2,419.22,12.86,431.7,21.06c18.84,13.38,33,30.88,39.67,53.5C476.8,92.22,478.71,111,477.73,130ZM77,156.88a.71.71,0,0,1-.65.79c-.64.8-.64.8-1.36.87C75.69,158.47,76.33,157.67,77,156.88Zm22.56-50.36a2.67,2.67,0,0,0-2.09.94,12.63,12.63,0,0,0-3.31,3.25l4.11-2.6C99,108,100.33,107.17,99.54,106.52Zm84,353.43c-.07-.72-.87-1.37-2.3-1.22-3-.43-5.7,1.31-7.79,2.25-10.44,4.7-21,8.68-32.43,10.58l-7,2.89a.7.7,0,0,0-.64.79c.07.72.14,1.45.86,1.37a2.64,2.64,0,0,0,2.24.5c.72-.07,2.09-.94,3,.43l-2.88.29c-1.45.15-2.1.95-2,1.66s1.59,1.3,2.31,1.23c10.88-.38,20.75-3.57,30.41-8.92a.71.71,0,0,0,.65-.79c.72-.08.64-.8-.15-1.45l-.72.08c-.72.07-.72.07-1.52-.57,5.55-2.76,9.58-6.08,16.22-5.3l.72-.07A2.64,2.64,0,0,0,183.52,460Zm-44.92-4.9a2.53,2.53,0,0,0-1.37.86,2.27,2.27,0,0,1,.57-1.51c-.07-.72.65-.79.73-.07Zm16.39,18a.71.71,0,0,1-.64.79C154.27,473.12,154.27,473.12,155,473.05Zm9.8-3.91.72-.07a.71.71,0,0,1-.65.79,26,26,0,0,0-7.78,2.24ZM121.86,89.68a.71.71,0,0,1-.65.8,2.55,2.55,0,0,0-.57,1.52c-.07-.73.65-.8,1.37-.87C122.66,90.33,122.66,90.33,121.86,89.68Zm17.26,12.09-4.11,2.6c-4.18,1.88-6.12,4.27-4.61,4.84,2.16-.22,4.18-1.88,5.48-3.47A8.81,8.81,0,0,0,139.12,101.77Zm266.34-81c-.15-1.44-1.74-2.74-3.25-3.31a25.83,25.83,0,0,0-6.78-2.22c-29.94-7.89-60.5-7.69-91.21-1.66A97.08,97.08,0,0,0,290,16.53c-7.14,1.45-14.27,2.9-21.26,5.8-5.62,2-10.3,6.14-17,4.64a2.67,2.67,0,0,0-2.09.94c-5.4,4.19-11.89,4.85-18.3,6.23-2.81,1-5.55,2.75-8.43,3-7.06,2.18-12.54,5.64-18.66,9.91a32.65,32.65,0,0,0-11.31,3.33A394.5,394.5,0,0,0,146.5,74.07c-4.18,1.88-8.36,3.76-10.81,8.38-1.44.15-2.16.22-2.8,1-.73.07-.65.79-1.37.86l1.44-.14c1.36-.87,2-1.66,2.73-1.74a56.87,56.87,0,0,1,7.64-3.69c17.94-9.83,35.23-18.87,53.38-26.54l7.49-5.13C215,46,224,41.43,233.89,38.25a234.75,234.75,0,0,1,31.78-9.79l21.41-4.36c1.44-.15,4.32-.44,4.82-2.67.36-3.68,3.24-4,5.48-3.47l45.41-4.62a34.82,34.82,0,0,1-8.57,1.6l-10.1,1a34.82,34.82,0,0,0-8.57,1.6c-3.61.36-6.49.66-9.23,2.39A34.8,34.8,0,0,0,315,19.8c23.07-2.34,45.64-2.45,67.85,1.12,2.88-.29,5.84.13,7.93-.81,2.81-1,5.77-.58,7.43,1.43,1.59,1.3,3.82,1.8,5.34,2.37.72-.07,1.37-.86,2.09-.94ZM170.74,355.65c.64-.8.64-.8,1.37-.87-.08-.72.57-1.52.5-2.24-.65.8-1.37.87-1.3,1.59C170.59,354.2,170.67,354.92,170.74,355.65Zm2.44-4.62a26,26,0,0,0,4.89-9.24C174.68,344.32,172.82,347.43,173.18,351Zm59.75,79.14a11.23,11.23,0,0,0-5.32,4.91c-3.61.37-5.63,2-7.57,4.41-6.41,1.38-12,4.13-15,9.54l-4.33.44a19,19,0,0,1-3.16,4.69A17.24,17.24,0,0,0,205,449c6.49-.66,11.24-4,15-9.54a11.63,11.63,0,0,0,7.57-4.41C229.62,433.42,231.71,432.48,232.93,430.17Zm-53.76-350-.8-.65a2.64,2.64,0,0,1-2.09.94.71.71,0,0,0-.64.8c.07.72.14,1.44.79.65,1.44-.15,2.16-.22,2.81-1ZM229.8,456.7c-.72.08-2.08.95-2.8,1s-.65.79-1.3,1.59l2.16-.22Zm12.64-33.32a8.36,8.36,0,0,0-4.68,4.11A8.4,8.4,0,0,0,242.44,423.38Zm-3.77-144.55-.72.07.65-.8Zm16.59,134.5c.65-.79.65-.79,1.36-.86l-.71.07ZM400,38.84c-4-3.23-9.16-4.16-14.35-5.09-20.12-4.51-39.8-4.7-60-2.65-14.34,2.19-29.41,4.45-44.4,7.43A352.18,352.18,0,0,0,229,54.76c-2.81,1-4.83,2.68-7.57,4.41,3.18,2.59,6,1.58,8.8.57,10.52-4,21.12-7.25,32.43-10.58,21.83-7.32,44.75-11.1,67.89-12.73,8.65-.88,17.38-1,26.1-1.19,13.2.84,25,2.55,37.57,4.19C396.47,39.93,398.06,41.23,400,38.84ZM266.63,403.44l-.72.07-1.29,1.59a15.2,15.2,0,0,0-7.35,6.57c3.46-1.81,5.48-3.47,7.35-6.57a2.25,2.25,0,0,1,1.36-.87C266.71,404.16,267.35,403.37,266.63,403.44Z" fill="#2d2f30"/><path d="M731.79,116.11c-.81,8.73-3.77,17.51-6.2,25.71-1.49,4.1-2.44,8.19-4,11.72-1.47,4.68-4,8.82-6.06,12.94a76.81,76.81,0,0,1-7.18,11.24c-1.54,2.37-2,5.28-2.44,8.19h.54c-1.61,0-2.13.64-1.56,1.79a57.18,57.18,0,0,0-5.75,5.39l-19.58,27.86a14.72,14.72,0,0,0-2,4.12,106.35,106.35,0,0,0-7.25,8.92c-4.13,5.92-8.82,10.71-13.5,16.07-8.29,10.11-17.66,20.26-26.51,29.81-6.24,7.15-12.49,13.72-18.74,20.29-1.58,1.21-3.69,2.43-4.16,4.77-1,2.35-3.12,3.57-5.23,4.8s-4.76,2.46-6.33,4.25.09,2.9,1.19,3.44c-2.6,3-5.75,5.4-10,6.11-2.16.06-4.27,1.29-3.09,4.73.06,1.74-1.54,2.37-2.06,3A57.28,57.28,0,0,1,574,336.1l1.5-3.53c-1.06.61-1.56,1.79-1.5,3.53a31.08,31.08,0,0,1-4.18,4.18c-6.84,4.85-13.65,10.86-20.51,15.13l-15.8,10.92a69,69,0,0,1-17.5,8.08l5.21-5.38c0-.58.5-1.18,0-1.74a1.89,1.89,0,0,0-1.09-.55c-3.75.7-6.38,2.52-9.55,4.36a118.14,118.14,0,0,1-22.32,8.8l7.57,1.51a44.5,44.5,0,0,0,8-3.15c4.24-1.87,7.95-3.72,12.25-3.85-4.73,3.62-10,6.1-15.34,8.59,4.34,1,8.17,3.23,12.52,4.83a92.42,92.42,0,0,0,13.58,4.22,42.43,42.43,0,0,1,8.13,2.08c8.72,3.79,17.39,5.84,26.61,8.46,7.06,2.1,14.11,4.21,21.19,6.89,6.54,2.7,13.59,4.8,20.11,6.92,10.87,3.73,21.76,8,32.63,11.76,5.45,2.15,9.33,6.09,10.6,12.43-18-9.88-37.59-15.66-56.61-22-32.61-11.18-65.21-21.78-98.32-31.78a21.06,21.06,0,0,1-2.67.66,7.39,7.39,0,0,1-3.75.7c.56.56,0,.58-.5,1.17l0-.58c-1.07,0-2.66.66-3.74.7l3.76-.12c1.69,2.27,4.39,2.77,7.11,3.84l103.22,33.37c12,4.27,23.92,8.55,35.36,13.42a63.1,63.1,0,0,1,9.27,3.77,15.07,15.07,0,0,1,4.42,3.92c0,1.16.61,2.31.11,3.48-1.06.61-1.58,1.21-2.66,1.24l-4.88-1.59c-21.82-9.77-44.62-16.61-66.9-24L463.8,392.25a4.59,4.59,0,0,1-2.66.66,12.19,12.19,0,0,1-6.45.19c.55.57,1.63.53,2.18,1.1,41.84,13.79,84.2,27,126,40.79,16.85,5.86,33.71,11.72,50.59,18.74,1.64.53,3.8,1,5.49,3.31-3.23.1-6-1-8.67-2.05-10.92-5.46-22.87-9.16-34.3-13.45l-44.54-14.29c-20.65-6.9-40.73-12.67-60.84-19.59L448.24,393.3c-3.22.1-5.86,1.92-9,4.92-1,1.19-3.16,2.41-3.64,4.17-.5,1.17.06,1.74,1.13,1.7a14.46,14.46,0,0,1-5.7,7.14,1.86,1.86,0,0,0,.07,2.31l-5.2,6a33.62,33.62,0,0,0-3.08,4.74c-2.59,3-1.39,7-5.07,10-2.61,2.4-4.1,6.5-6.14,10.05a74.67,74.67,0,0,0-7.57,16.47c-.5,1.17-.46,2.33-1.5,3.52-5.7,7.14-8.1,16.49-12.71,24.17a95.24,95.24,0,0,0-7.54,17.05,18.24,18.24,0,0,1-2,4.7c-2,3.54-6.86,4.27-8.6.26-3.43-6.85-5.24-13.18-1.73-21.4l15.65-33.54c3.53-7.64,7.07-14.71,11.14-22.38,2.53-5.29,5.61-10,8.14-15.32C410,409,414,399,419.64,390.12l1.54-2.37a6.7,6.7,0,0,0-.2-6.37l-.53,0c-2.19-1.1-3.84-2.2-5-4.49a11.66,11.66,0,0,1,2.74,1.66c-.57-1.15-1.67-1.69-2.78-2.82-3.33-3.38-5.6-7.37-7.88-11.35a16.32,16.32,0,0,1-1.34-8.66c-.09-2.9,2-5.28,4.71-4.21,4.36,1.61,8.73,3.79,12.54,5.42l3.28,1.64c5.46,2.73,8.13,2.07,11.75-2.68,3.08-4.74,6.16-9.47,8.17-14.17,3-6.47,6.06-12.94,10.73-18.31a12.87,12.87,0,0,0,2.55-4.71c4.53-10,10.71-18.89,16.36-27.76,2-3.54,4.1-6.5,5.61-10,3.58-5.91,7.15-12.4,11.29-17.75l3.08-4.73c4.51-10.58,11.23-19.48,16.86-28.93,9.71-16.54,22.18-30.84,31.91-46.79,8.71-14.19,19.06-27.26,28.87-40.9,5.66-8.29,12.43-15.46,18.63-23.77,4.15-4.76,8.33-9,13.61-12,0-.58,1.06-.61,1.08,0,1.07,0,.57,1.15.59,1.72-.54,0-.52.6-.52.6,0,1.16.07,2.32,1.68,2.27l2.15-.07a3.83,3.83,0,0,1,2.85,5.14c0,.58-.5,1.17-.49,1.75-4.1,6.51-7.11,13.56-12.31,19.51-3.13,3-5.69,7.14-8.27,10.7-6.19,8.88-12.35,18.35-19.07,27.26-3.12,3.57-5.12,8.27-7.68,12.41L552.28,208c-3.6,5.33-7.19,11.24-10.79,16.57a12.77,12.77,0,0,0-2,6.44,23,23,0,0,1-5.16,7.12c-1.58,1.2-2.08,2.38-3.1,4.15a3.13,3.13,0,0,1-1.54,2.37c-4.73,3.62-6.72,8.9-8.14,15.32A21.14,21.14,0,0,1,515,271.22c-4.72,3.62-7.79,8.93-10.87,13.67l-2.53,5.29,1.08,0,1.56-1.79c-.52.6-.51,1.18-1,1.78l-1.57,1.2c-.95,4.09-2.48,7-5.65,8.87a7.76,7.76,0,0,0-3.1,4.16c-.52.59-1,1.19-1,1.77l1.08,0a35.31,35.31,0,0,1-8.15,14.75l-1.51,3.52-.11-3.48a2.28,2.28,0,0,0,.11,3.48c-1.06.61-2.08,2.38-3.14,3a10.44,10.44,0,0,0-5.12,8.27c-.4,4.65-3,7.63-6.68,10.06a32.26,32.26,0,0,0-7.78,9.52l.07,2.32c1.09.55,2.13-.65,2.67-.66,1.72,3.42,4.44,4.5,8.2,4.39a114.07,114.07,0,0,0,18.65-5.8c7.41-3.7,14.81-8,22.23-11.69a265.57,265.57,0,0,0,33.75-21.92l12.65-8.5c2.61-2.4,5.76-4.82,8.92-7.24,9.92-9.58,20.4-18.6,30.85-28.78,11.5-10.79,23-23.32,33.88-35.25l1.54-2.37c13.61-12,22.82-27.37,33.68-41.62A416.14,416.14,0,0,0,701.51,146a184.68,184.68,0,0,0,13.14-27.66c8-18.8,4.81-36.1-8-51.95a63.86,63.86,0,0,0-16-14c-10.38-5.48-20.77-11-32.16-14.09-7.57-1.51-15.69-3-23.75-2.76A280.76,280.76,0,0,0,576.77,42,334.35,334.35,0,0,0,518.2,61.19c-5.31,2.48-11.16,4.4-16.48,6.31l1.5-3.53a16.19,16.19,0,0,0-6.88,3.69l5.38-.16.53,0a25.14,25.14,0,0,1-8.45,4.9c-7.92,4.88-16.39,9.2-24.31,14.08-5.27,3.64-10,6.69-15.3,9.75a19.33,19.33,0,0,1-9.46,7.25c-3.2.68-5.3,2.48-7.93,4.3-10,6.69-17.24,16.76-25,25.7-3.12,3.58-6.24,7.15-6.63,11.81l-1.56,1.78a75.54,75.54,0,0,0-12.72,23.59,37.14,37.14,0,0,0-2.37,10.51,91.75,91.75,0,0,1-.17,12.18A20.62,20.62,0,0,0,397,211.62c3.33,3.38,7.17,5.58,11,7.79A135.75,135.75,0,0,0,427,227.52c1.63.53,3.26,1.06,3.33,3.38.06,1.74,1.15,2.28,2.24,2.83l3.28,1.64c1.09.54,1.7,2.84.64,3.46a15.78,15.78,0,0,0-4.23,2.45c-.52.59,0,1.16,1.13,1.7s1.11,1.13.06,1.74a20.92,20.92,0,0,1-5.9.76,46.63,46.63,0,0,1-23.35-7.4,76.06,76.06,0,0,1-21.67-22.53,71.57,71.57,0,0,1-4.58-9.14c-6.53-20.1-7.68-39.78.88-59.18A132.7,132.7,0,0,1,387,131.9c7.15-12.39,16-23.1,24.78-33.81,1.06-.61,1.56-1.79,2.62-2.4,9.45-7.25,17.25-16.19,26.71-23.44,7.36-5.44,14.72-10.89,23.21-14.63,6.36-3.09,12.15-7.33,18.49-11,6.84-4.85,14.28-8,21.71-11.1a96.64,96.64,0,0,0,13.26-6.21c4.74-3,10.62-4.39,16.5-5.72a96.45,96.45,0,0,0,19.18-5.81c4.25-1.87,8-2.57,12.25-3.86,6.41-1.35,12.81-3.29,19.22-4.65,9.6-2.61,18.74-2.89,28.39-3.77l7-.21a75.77,75.77,0,0,1,19.9,0c10.22.27,20,2.29,29.73,4.89a14.72,14.72,0,0,1,4.87,1c9.83,4.92,20.15,8.08,28.44,15.36a79.87,79.87,0,0,1,26.65,45A138.44,138.44,0,0,1,731.79,116.11Zm-300.66,298,0-.58ZM432.21,116c.52-.6,1-1.19,1.58-1.21l0,.58A1.89,1.89,0,0,0,432.21,116ZM453,75.37a2.51,2.51,0,0,0-1.6.63,12.42,12.42,0,0,1-2.61,2.4c1.05-.62,2.66-.67,3.72-1.28C452.51,76.54,453.59,76.51,453,75.37Zm44.84,287.42c-.55-.57-1.11-1.13-1.64-1.11-2.17-.52-4.29.71-6.42,1.35-8,3.15-16,5.71-24.54,6.55a18,18,0,0,0-5.34,1.33.53.53,0,0,1-.52.59c1.1.55,2.71.5,3.8,1.05a29.47,29.47,0,0,1,7.61,2.66.55.55,0,0,1,.56.57,93.18,93.18,0,0,0,13.31-4.47c.53,0,.52-.6.52-.6.52-.59.5-1.17,0-1.15a.55.55,0,0,0-.55-.57L483,369c4.25-1.87,7.94-4.3,12.79-3.87,0,.58.54,0,.54,0C497.38,364.54,498.43,363.93,497.86,362.79ZM464.3,355.7l-1,1.19a1.87,1.87,0,0,0,.5-1.18c.52-.59.5-1.17.52-.59C464.82,355.1,464.3,355.7,464.3,355.7Zm14.8,26.8a116.89,116.89,0,0,1-13.9,2.74l9.78,3.18c2.13-.64,3.75-.69,5.34-1.32,1.63.53,2.71.5,3.8,1l0-.58c-1.07,0-2.17-.51-3.78-.46l6.4-1.94Zm-3-11.51,1.08,0c-.54,0-1.08,0-1.06.61l-.54,0C475,371.6,475,371,476.06,371Zm1.06-.61A21.31,21.31,0,0,0,483,369L477.14,371Zm2.11,16.17-.56-.56C479.21,386,479.23,386.55,479.23,386.55ZM471,63.8l-.54,0c-.52.59-.5,1.17-1,1.19.54,0,1.07,0,1.06-.61C471.5,64.36,471.48,63.78,471,63.8Zm8.28,322.75a1.86,1.86,0,0,1,1.09.55A1.86,1.86,0,0,0,479.23,386.55Zm3.88-312.11c-1.06.62-2.67.67-3.73,1.28-2.63,1.82-4.73,3.62-3.65,3.59,2.14-.06,3.18-1.26,4.76-2.47C481.55,76.23,482.05,75.06,483.11,74.44Zm50.41-39.81.54,0c-3.25-.48-5.9.76-8.55,2-12.23,4.44-24.43,10-36.09,15.6A18,18,0,0,0,481,58.27a3.06,3.06,0,0,1-2.13.65l-1.05,1.19a1.89,1.89,0,0,0,1.6-.63c.54,0,1.06-.61,1.58-1.21a28.66,28.66,0,0,0,6.37-2.51c13.26-6.21,26.5-13,40.86-18.07C529.83,37.06,531.92,35.26,533.52,34.63Zm-40.4,243.63c.54,0,1.07,0,1.05-.61l1-1.77a38.06,38.06,0,0,0,4.05-8.24c-2.63,1.82-3.62,4.75-4.05,8.24l-1.58,1.21A1.85,1.85,0,0,0,493.12,278.26Zm42.29,63.66a29.69,29.69,0,0,0-4.21,3,7.3,7.3,0,0,0-5.81,3.65,17.54,17.54,0,0,0-11.62,6.74l-2.69.08a14.73,14.73,0,0,1-3.13,3,8.38,8.38,0,0,0,5.82-3.08,18.72,18.72,0,0,0,11.62-6.74A10.47,10.47,0,0,0,531.2,345,11.7,11.7,0,0,0,535.41,341.92Zm-13.82,57.83c1.09.55,2.7.5,4.33,1a14.72,14.72,0,0,1-4.87-1l-4.35-1.61ZM513.83,59h-.54c-1.08,0-1.61,0-2.13.65a.53.53,0,0,0-.52.59c0,.58.56.57,1.09.55a1.89,1.89,0,0,1,1.6-.63C513.85,59.59,513.85,59.59,513.83,59Zm16.44,343.38c-1.63-.53-2.72-1.08-4.35-1.61Zm-.1-38.27,1-1.2a1.91,1.91,0,0,0-1.59.63l-.52.6C529.64,364.13,529.65,364.71,530.17,364.12Zm9.34,41.46a12,12,0,0,0,4.34,1l4.35,1.61c-1.63-.53-2.71-.5-4.34-1Zm3.26-69.11c-1.58,1.21-3.17,1.84-4.19,3.61A8.42,8.42,0,0,0,542.77,336.47ZM683.83,25.38A3.91,3.91,0,0,0,681.57,22a30.54,30.54,0,0,0-4.37-2.19c-22.28-7.43-44.91-9.06-67.43-6.63a74.47,74.47,0,0,1-11.25,1.51,154.57,154.57,0,0,0-16,3.39c-4.26,1.29-7.92,4.88-12.81,3.29,0-.58-1.07,0-1.07,0-4.19,3.61-9.59,3.2-14.38,4.5l-5.86,1.92a27.73,27.73,0,0,0-14.31,6.82c8.05-.25,14.41-3.34,21.87-5.89,8-2,16-4.55,24-6,5.35-.74,10.72-.9,16.08-1.65,1.59-.63,3.74-.69,3.71-1.85,1-2.93,2.6-3,4.75-3.05,11.28-.34,22.58-.11,33.87-.46a30.55,30.55,0,0,1-7,.8l-7.53.23-6.44.2c-2.15.06-4.84.14-6.95,1.37a33.94,33.94,0,0,0,7,.94,210.05,210.05,0,0,1,50.15,4.27,7,7,0,0,0,5.91-.19c2.13-.64,3.76-.11,5.42,1.58,1.12,1.12,2.23,2.25,3.84,2.2,0,0,1.07,0,1.05-.61C684.4,26.52,684.38,25.94,683.83,25.38ZM546.78,221.53l-1.58,1.21C545.72,222.14,546.24,221.55,546.78,221.53Zm5.77,188.29.54,0,4.35,1.61ZM547.3,220.93l.52-.59A.54.54,0,0,1,547.3,220.93ZM561.69,322a.53.53,0,0,0-.52.59,1.81,1.81,0,0,1-1.06.61,12.15,12.15,0,0,0-5.21,5.38,1.87,1.87,0,0,0-1.59.63l-.52.6a2.72,2.72,0,0,1,2.11-1.23,12.1,12.1,0,0,0,5.21-5.38,1.88,1.88,0,0,0,1.6-.62C562.24,322.54,562.23,322,561.69,322Zm-16-276.71c0-.58,0-.58-.56-.56l-.53,0C545.12,44.71,545.12,44.71,545.68,45.27Zm133.74-5.84A28.1,28.1,0,0,0,668.5,34a124,124,0,0,0-43.73-5,209.4,209.4,0,0,0-33.24,3.34A303.93,303.93,0,0,0,552,41.6a70.52,70.52,0,0,0-6.34,3.67l.53,0c1.69,2.27,3.8,1,5.93.4,8-2.56,16.55-4,24.54-6.55a194.84,194.84,0,0,1,51.44-6.22c6.47.39,12.92.19,19.4,1.15a156.91,156.91,0,0,1,27.6,5.53C676.19,39.53,677.84,40.64,679.42,39.43Zm-94.81,381-.56-.57h.54Zm13-103h-.54l1.55-1.79Zm2.59-3c-.54,0-1.06.61-1.58,1.2l1.56-1.78Zm29,121.47v.58S628.65,435.9,629.19,435.89Zm0,0" fill="#2d2f30"/></svg>